<svg width="169" height="42" viewBox="0 0 169 42" fill="none" xmlns="http://www.w3.org/2000/svg">
<g clip-path="url(#clip0_76_104)">
<path d="M40.0569 37.4058H42.5447C44.1159 37.4058 45.3411 36.9585 46.2295 36.0732C47.118 35.1879 47.567 33.9765 47.567 32.4482V13.4005H40.6087V8.81562H52.636V32.6346C52.636 35.542 51.6914 37.8252 49.8022 39.4932C47.913 41.1613 45.4439 41.9907 42.4044 41.9907H40.0569V37.4058ZM47.567 0H52.6828V5.50743H47.567V0Z" fill="#313F90"/>
<path d="M58.7807 30.8733C57.2282 29.4848 56.4519 27.6583 56.4519 25.3845C56.4519 23.1107 57.2282 21.3029 58.7807 19.9423C60.3332 18.5818 62.4282 17.9015 65.0656 17.9015H72.6224V16.7087C72.6224 15.5159 72.2109 14.5467 71.3972 13.7919C70.5836 13.0464 69.4893 12.6643 68.1051 12.6643H67.0015C65.739 12.6643 64.7008 12.9625 63.8872 13.5589C63.0735 14.1553 62.5778 14.9474 62.3908 15.9259H57.2375C57.6677 13.3539 58.7526 11.4249 60.4828 10.1389C62.2131 8.8529 64.4483 8.2099 67.1886 8.2099H67.6936C70.9764 8.2099 73.4454 9.04859 75.0915 10.7073C76.7375 12.3754 77.5605 14.7517 77.5605 17.8456V24.9559C77.5605 26.0555 77.7102 26.8289 78.0001 27.2762C78.29 27.7235 78.7951 27.9379 79.4965 27.9379H80.6001V32.2991H78.0188C75.7461 32.2991 74.2591 31.3672 73.5483 29.5034C72.9965 30.6403 72.1548 31.4884 71.0418 32.0754C69.9195 32.6532 68.6382 32.9514 67.1979 32.9514H65.0749C62.4282 32.9607 60.3332 32.2618 58.7807 30.8733ZM62.8116 27.7515C63.5785 28.3759 64.6354 28.6927 65.9915 28.6927H67.2821C68.8814 28.6927 70.1721 28.2827 71.1541 27.4533C72.1361 26.6239 72.6318 25.4218 72.6318 23.8283V21.8061H66.0008C64.6541 21.8061 63.5879 22.1229 62.821 22.7473C62.0541 23.3716 61.6706 24.2103 61.6706 25.2447C61.6613 26.2884 62.0447 27.1178 62.8116 27.7515Z" fill="#313F90"/>
<path d="M85.613 10.8099C87.2684 9.08587 89.6533 8.21922 92.7583 8.21922H93.2166C95.2087 8.21922 96.8454 8.58265 98.1267 9.31884C99.3986 10.055 100.362 11.0149 101.007 12.2077C101.653 11.0149 102.616 10.0457 103.888 9.31884C105.16 8.58265 106.796 8.21922 108.798 8.21922H109.209C112.314 8.21922 114.699 9.08587 116.373 10.8099C118.048 12.5432 118.88 15.022 118.88 18.2649V32.3084H113.811V18.4047C113.811 16.7553 113.381 15.46 112.52 14.5281C111.66 13.5962 110.463 13.1302 108.929 13.1302H108.424C106.853 13.1302 105.655 13.5962 104.804 14.5281C103.963 15.46 103.542 16.7553 103.542 18.4047V32.3177H98.4727V18.4047C98.4727 16.7553 98.0425 15.46 97.1821 14.5281C96.3217 13.5962 95.1245 13.1302 93.5907 13.1302H93.0857C91.5238 13.1302 90.3173 13.5962 89.4663 14.5281C88.6245 15.46 88.2037 16.7553 88.2037 18.4047V32.3177H83.1346V18.2649C83.1252 15.022 83.9576 12.5432 85.613 10.8099Z" fill="#313F90"/>
<path d="M124.959 30.2955C123.182 28.525 122.284 25.9809 122.284 22.6727V18.4513C122.284 15.1804 123.173 12.655 124.959 10.8751C126.736 9.10451 129.308 8.2099 132.656 8.2099H133.76C137.08 8.2099 139.624 9.09519 141.41 10.8751C143.187 12.6457 144.085 15.1711 144.085 18.4513V22.6727C144.085 25.9809 143.196 28.5156 141.41 30.2955C139.633 32.0661 137.08 32.9607 133.76 32.9607H132.656C129.308 32.9607 126.736 32.0661 124.959 30.2955ZM128.784 26.7637C129.701 27.7142 131.01 28.1895 132.703 28.1895H133.666C135.359 28.1895 136.659 27.7142 137.585 26.7637C138.501 25.8132 138.969 24.4713 138.969 22.7286V18.4513C138.969 16.6807 138.511 15.3109 137.585 14.3697C136.659 13.4191 135.359 12.9439 133.666 12.9439H132.703C131.01 12.9439 129.71 13.4191 128.784 14.3697C127.858 15.3202 127.4 16.6807 127.4 18.4513V22.7193C127.4 24.462 127.858 25.8132 128.784 26.7637Z" fill="#313F90"/>
<path d="M149.884 30.2955C148.107 28.525 147.209 25.9809 147.209 22.6727V18.4513C147.209 15.1804 148.097 12.655 149.884 10.8751C151.661 9.10451 154.232 8.2099 157.581 8.2099H158.684C162.004 8.2099 164.548 9.09519 166.335 10.8751C168.112 12.6457 169.009 15.1711 169.009 18.4513V22.6727C169.009 25.9809 168.121 28.5156 166.335 30.2955C164.558 32.0661 162.004 32.9607 158.684 32.9607H157.581C154.223 32.9607 151.661 32.0661 149.884 30.2955ZM153.709 26.7637C154.625 27.7142 155.935 28.1895 157.627 28.1895H158.591C160.284 28.1895 161.584 27.7142 162.509 26.7637C163.426 25.8132 163.894 24.4713 163.894 22.7286V18.4513C163.894 16.6807 163.435 15.3109 162.509 14.3697C161.584 13.4191 160.284 12.9439 158.591 12.9439H157.627C155.935 12.9439 154.635 13.4191 153.709 14.3697C152.783 15.3202 152.325 16.6807 152.325 18.4513V22.7193C152.325 24.462 152.783 25.8132 153.709 26.7637Z" fill="#313F90"/>
<path d="M15.2727 29.3543C15.2633 29.3637 15.2446 29.3637 15.2353 29.3637C15.1885 29.3823 15.1417 29.3916 15.095 29.4009C15.0763 29.4009 15.0576 29.4102 15.0482 29.4102C14.9921 29.4196 14.9266 29.4289 14.8705 29.4289C14.7957 29.4289 14.7209 29.4196 14.646 29.4102C14.6367 29.4102 14.6273 29.4009 14.6273 29.4009C14.5619 29.3823 14.4964 29.3637 14.4309 29.3357C14.4309 29.3357 14.4309 29.3357 14.4216 29.3357C14.3561 29.3077 14.2906 29.2705 14.2252 29.2239C14.1597 29.1773 14.1036 29.1307 14.0475 29.0655L4.46115 18.6843L0 21.219V31.6747C0 34.1349 2.00144 36.1384 4.47986 36.1384H28.2072C30.6763 36.1384 32.6871 34.1442 32.6871 31.6747V19.5043L15.4223 29.2891C15.3662 29.3171 15.3194 29.3357 15.2727 29.3543ZM27.7676 23.6885C28.5719 23.2319 29.6007 23.5114 30.059 24.3128C30.5173 25.1143 30.2367 26.1393 29.4324 26.596C28.6281 27.0526 27.5993 26.773 27.141 25.9716C26.6827 25.1609 26.9633 24.1451 27.7676 23.6885ZM17.9755 29.2332C18.7799 28.7766 19.8086 29.0561 20.2669 29.8576C20.7252 30.659 20.4446 31.684 19.6403 32.1407C18.836 32.5973 17.8072 32.3177 17.3489 31.5163C16.8906 30.7149 17.1712 29.6898 17.9755 29.2332Z" fill="#313F90"/>
<path d="M24.092 9.55181L7.65967 18.8613L10.5496 21.9925L25.3079 13.6335L24.092 9.55181Z" fill="#50F0A3"/>
<path d="M28.2072 3.56911H4.47986C2.00144 3.56911 0 5.56335 0 8.03284V18.6563L4.13381 16.3173C4.58273 16.0564 5.16259 16.1495 5.50863 16.5316L6.10719 17.1746L24.2043 6.91458C24.5036 6.74684 24.859 6.71888 25.177 6.84935C25.495 6.97981 25.7381 7.24074 25.8317 7.5669L27.7022 13.8478C27.7115 13.8757 27.7115 13.9037 27.7209 13.9317C27.7302 13.9689 27.7396 14.0155 27.7489 14.0528C27.7489 14.0901 27.7489 14.1274 27.7489 14.1646C27.7489 14.2019 27.7489 14.2392 27.7489 14.2671C27.7489 14.3044 27.7396 14.3417 27.7302 14.379C27.7209 14.4162 27.7209 14.4442 27.7115 14.4815C27.7022 14.5187 27.6835 14.5467 27.6741 14.584C27.6648 14.6119 27.646 14.6492 27.6367 14.6772C27.618 14.7051 27.5993 14.7331 27.5806 14.7704C27.5619 14.7983 27.5432 14.8356 27.5151 14.8635C27.4964 14.8915 27.4683 14.9195 27.4403 14.9474C27.4122 14.9754 27.3935 14.994 27.3655 15.022C27.3281 15.0499 27.3 15.0686 27.2626 15.0965C27.2439 15.1152 27.2252 15.1338 27.1971 15.1431L12.1115 23.6885L15.0856 26.9128L32.6871 16.9416V8.03284C32.6871 5.56335 30.6763 3.56911 28.2072 3.56911Z" fill="#50F0A3"/>
</g>
<defs>
<clipPath id="clip0_76_104">
<rect width="169" height="42" fill="white"/>
</clipPath>
</defs>
</svg>
