<svg width="127" height="45" viewBox="0 0 127 45" fill="none" xmlns="http://www.w3.org/2000/svg">
<g clip-path="url(#clip0_54_38)">
<path d="M5.54386 43.8511C4.07427 43.8504 2.66505 43.2692 1.62562 42.2352C0.586199 41.2012 0.00153142 39.7988 0 38.3361L0 23.1174C0.381538 23.782 0.667691 24.4494 1.05212 25.114C1.33827 25.5887 1.62443 26.1583 1.91058 26.6359C2.39039 27.683 2.77193 28.7274 2.77193 28.7274L4.77789 29.3919C6.78385 33.0082 8.79271 37.0042 10.7033 40.4248C10.9894 40.8074 11.1802 41.1871 11.371 41.6618C11.7525 42.5191 12.1369 43.2786 12.4202 43.8511H5.54386ZM24.9416 41.0922C25.8029 40.5226 25.8029 39.5732 25.8029 39.0007C25.7075 38.6181 25.5139 38.0485 25.4214 37.6687C25.6122 35.8592 25.1352 34.3402 24.6554 32.9132C24.297 31.6589 23.797 30.3499 23.797 28.7274V28.6353C23.6987 27.9707 23.6033 27.2084 23.4125 26.5438C23.3172 25.4017 23.3172 24.6393 23.3172 24.6393L23.2218 24.4494C23.031 23.9747 22.8373 23.4972 22.7448 22.9276C22.6495 22.6428 22.6495 22.263 22.5541 21.9782C22.7448 21.7883 22.8402 21.6905 22.8402 21.5035C22.9356 21.4086 23.031 21.3136 23.1293 21.1209V21.0259L23.3172 20.8361L23.4125 20.6462C23.6033 19.9816 23.4125 18.7446 22.3604 18.4569C22.1696 18.0771 22.0743 17.6945 21.8835 17.2198C21.6927 16.5553 21.5945 15.7929 21.4037 15.0334C21.1204 13.6093 20.5452 11.7998 19.1116 10.7526L18.8254 10.4678H18.4439C18.2531 10.5627 18.0623 10.4678 17.7762 10.4678C17.3918 10.3757 17.1056 10.2779 16.8194 10.183C16.4162 9.99238 15.9753 9.8935 15.5289 9.8935C15.0824 9.8935 14.6416 9.99238 14.2383 10.183C13.666 10.183 12.9954 10.2779 12.3277 10.3728C11.9462 10.4678 11.66 10.4678 11.3739 10.4678C11.3739 10.2779 11.4693 10.088 11.4693 9.89528L11.5617 9.80322V9.61335C11.4981 8.82586 11.3047 8.05415 10.9894 7.3291H21.6927C24.6554 7.3291 27.1412 9.80322 27.1412 12.847V38.3361C27.1577 39.6224 26.7154 40.8729 25.893 41.8652C25.0706 42.8576 23.9213 43.5276 22.6495 43.7562C23.6033 43.0916 24.4647 42.2372 24.9416 41.0922ZM0 12.847V12.4672C0.86135 13.7043 2.29501 14.179 3.25174 14.4638L3.53789 14.5587C2.78154 15.1325 2.04778 15.7351 1.33827 16.3654L1.24289 16.4603C0.783324 16.9293 0.367333 17.4386 0 17.9822L0 12.847Z" fill="#AE3D91"/>
<path d="M124.034 15.3181C122.028 14.9383 122.028 12.4642 122.028 10.9424C122.028 9.51542 123.08 7.70874 124.514 7.70874C126.043 7.70874 127 9.22773 127 10.7525C127 12.0845 126.139 15.413 124.323 15.413C124.228 15.413 124.13 15.413 124.034 15.3181ZM32.9682 24.6392C31.63 24.6392 31.0577 24.5443 30.5778 24.1616C30.0173 23.8167 29.6077 23.2744 29.4303 22.6426C29.335 22.26 29.335 21.9781 29.335 20.836V11.6098C29.335 10.2778 29.335 10.0879 29.4303 9.70817C29.9102 8.47111 30.864 7.90149 32.4884 7.90149H35.928C38.4138 7.90149 40.4198 8.56605 42.0442 9.99299C43.764 11.6098 44.8132 13.8912 44.8132 16.2703C44.8132 18.5517 43.7611 20.836 42.0442 22.3578C40.9676 23.4154 39.608 24.1424 38.1277 24.4522C37.1773 24.5795 36.2193 24.6429 35.2604 24.6421L32.9682 24.6392ZM34.8788 19.504C36.7894 19.409 37.2663 19.409 37.9369 18.9315C38.7029 18.359 39.2752 17.3147 39.2752 16.2675C39.2752 15.0304 38.6075 13.8883 37.46 13.4136C36.9802 13.1259 36.4079 13.0339 35.3557 13.0339H34.8788V19.504ZM48.1633 22.168C47.1111 20.741 46.7296 19.5989 46.7296 17.3175V11.4199C46.7296 9.89805 46.9204 9.42336 47.3973 8.85086C47.8771 8.1863 48.7356 7.80655 49.5969 7.80655C50.2646 7.80655 51.126 8.09137 51.6029 8.66099C52.1781 9.23061 52.3688 9.80311 52.3688 11.0402V17.6023C52.3688 18.8394 52.9412 19.5989 53.8979 19.5989C54.8517 19.5989 55.3315 18.8394 55.3315 17.6973V11.0402C55.3315 9.80311 55.5223 9.42336 55.9992 8.85086C56.2467 8.52923 56.5645 8.268 56.9287 8.08704C57.2928 7.90608 57.6936 7.81015 58.1006 7.80655C58.9619 7.80655 59.8204 8.1863 60.3002 8.75593C60.7771 9.42049 60.9679 9.89517 60.9679 11.4199V17.3175C60.9679 19.5989 60.3956 21.2157 59.1527 22.5477C58.5105 23.3157 57.7075 23.9348 56.7999 24.3617C55.8922 24.7886 54.9018 25.0129 53.8979 25.0189C52.7838 25.0279 51.6834 24.7743 50.6867 24.2788C49.6899 23.7832 48.8252 23.0599 48.1633 22.168ZM73.391 23.592L68.9946 17.9821V21.5034C68.9946 22.6426 68.8039 23.1202 68.3269 23.7848C68.0604 24.0784 67.736 24.3144 67.3741 24.4782C67.0121 24.642 66.6203 24.7301 66.2227 24.737C65.3614 24.737 64.5029 24.3544 63.9306 23.6898C63.5462 23.0224 63.3554 22.5477 63.3554 21.3106V10.7525C63.3554 8.9458 64.5029 7.80655 66.3181 7.80655C67.0812 7.80655 67.7518 8.09137 68.3241 8.85086L72.7204 14.2738V11.1351C72.7204 10.0879 72.9112 9.5183 73.2927 8.94868C73.5588 8.59373 73.9047 8.30578 74.3027 8.10794C74.7008 7.91009 75.1399 7.80786 75.5848 7.80943C76.3479 7.80943 77.1139 8.09424 77.6862 8.7588C78.166 9.32843 78.3539 9.89805 78.3539 10.9481V21.2186C78.3539 22.5506 78.1631 23.1202 77.6862 23.6898C77.4392 24.0121 77.1215 24.274 76.7573 24.4555C76.3931 24.637 75.9921 24.7333 75.5848 24.737C74.631 24.737 73.9633 24.3544 73.391 23.592ZM90.6874 23.8797L86.5801 18.6495V21.5955C86.5801 23.4971 85.4325 24.737 83.7127 24.737C81.9929 24.737 80.9408 23.4971 80.9408 21.5955V10.8503C80.9408 9.04361 82.0883 7.80655 83.7127 7.80655C84.4787 7.80655 85.3372 8.09137 85.817 8.66099C86.2939 9.23061 86.5829 9.89805 86.5829 10.8503V13.5143L89.641 9.04361C89.8788 8.65388 90.2163 8.33399 90.619 8.11664C91.0218 7.89929 91.4753 7.79228 91.9331 7.80655C93.4622 7.80655 94.7022 9.04361 94.7022 10.5626C94.7022 11.0402 94.5114 11.6098 94.3206 11.9895L91.4533 16.0805L94.893 20.4562C95.2745 20.836 95.3699 21.4085 95.3699 21.9781C95.3691 22.7091 95.0772 23.4099 94.5582 23.9271C94.0391 24.4442 93.3353 24.7355 92.6008 24.737C91.832 24.737 91.0689 24.4493 90.6874 23.8797ZM97.8528 23.8797C97.2776 23.3101 97.1851 22.7405 97.1851 21.5955V11.2272C97.1851 9.80023 97.2804 9.32555 97.8528 8.65811C98.3326 8.08849 99.0956 7.80368 99.8587 7.80368C100.72 7.80368 101.483 8.08849 101.963 8.65811C102.535 9.23061 102.726 9.80311 102.726 11.2272V21.5955C102.726 22.6426 102.437 23.3101 101.96 23.7848C101.706 24.0686 101.398 24.2991 101.054 24.4626C100.709 24.6262 100.335 24.7195 99.9541 24.737C99.1881 24.737 98.3326 24.3544 97.8528 23.8797ZM115.245 23.592L110.848 17.9821V21.5034C110.848 22.6426 110.753 23.1202 110.276 23.7848C109.991 24.0797 109.65 24.3156 109.273 24.479C108.896 24.6424 108.49 24.7301 108.079 24.737C107.218 24.737 106.359 24.3544 105.88 23.6898C105.403 23.0224 105.307 22.5477 105.307 21.3106V10.7525C105.307 8.9458 106.452 7.80655 108.174 7.80655C109.033 7.80655 109.608 8.09137 110.279 8.85086L114.675 14.2738V11.1351C114.675 10.0879 114.77 9.5183 115.155 8.94868C115.632 8.28412 116.589 7.80943 117.447 7.80943C118.308 7.80943 119.071 8.09424 119.551 8.7588C120.031 9.32843 120.219 9.89805 120.219 10.9481V21.2186C120.219 22.5506 120.124 23.1202 119.647 23.6898C119.38 24.0148 119.045 24.2772 118.665 24.4583C118.284 24.6393 117.869 24.7345 117.447 24.737C117.014 24.7374 116.588 24.6334 116.204 24.434C115.821 24.2346 115.491 23.9457 115.245 23.592Z" fill="#CF4037"/>
<path d="M124.8 26.7307C123.656 26.7307 122.604 27.683 122.604 28.92C122.604 30.1571 123.656 31.1093 124.8 31.1093C126.043 31.1093 127 30.1571 127 28.92C127 27.683 126.04 26.7307 124.8 26.7307ZM124.8 30.8216C123.751 30.8216 122.89 29.9643 122.89 28.92C122.89 27.8757 123.751 27.0184 124.8 27.0184C125.852 27.0184 126.711 27.8757 126.711 28.92C126.711 29.9643 125.852 30.8216 124.8 30.8216Z" fill="#AE3D91"/>
<path d="M125.945 28.3503C125.945 28.1605 125.85 27.9706 125.659 27.7807C125.468 27.6829 125.277 27.6829 125.086 27.6829H124.034V30.1541H124.323V29.0149H124.896L125.563 30.1541H125.945L125.182 29.0149C125.563 29.0149 125.945 28.825 125.945 28.3503ZM124.8 28.7272H124.323V27.8756H124.991C125.277 27.8756 125.659 27.9706 125.659 28.3503C125.662 28.825 125.086 28.7272 124.8 28.7272ZM33.0636 43.569C31.7253 43.569 31.2484 43.4741 30.7715 43.1864C30.1038 42.7117 29.7223 42.332 29.6269 41.6645C29.5315 41.2848 29.5315 41 29.5315 39.8579V30.6317C29.5315 29.2076 29.5315 29.1127 29.6269 28.7301C30.0084 27.493 31.0605 26.9234 32.5896 26.9234H36.0292C38.5121 26.9234 40.5209 27.588 42.1454 29.0178C43.0149 29.7982 43.7106 30.7513 44.1875 31.8156C44.6645 32.8799 44.9121 34.0319 44.9144 35.1973C44.9144 37.5765 43.8623 39.7629 42.2379 41.3797C41.0932 42.332 39.6567 43.0915 38.2259 43.3763C37.2759 43.5072 36.3177 43.5707 35.3586 43.5662H33.0636V43.569ZM34.9771 38.5259C36.8877 38.5259 37.3646 38.4309 38.0352 37.9562C38.8965 37.3866 39.4688 36.3394 39.4688 35.2923C39.4688 34.0552 38.7029 32.821 37.6536 32.3463C37.0813 32.0586 36.509 31.9637 35.4569 31.9637H34.98V38.5259H34.9771ZM45.3913 35.1944C45.3913 30.344 49.3079 26.5408 54.2765 26.5408C59.1527 26.5408 63.0692 30.4389 63.0692 35.1944C63.0692 40.0477 59.1527 44.0409 54.2765 44.0409C53.1088 44.0431 51.9522 43.8158 50.8729 43.372C49.7937 42.9282 48.8132 42.2767 47.9876 41.4547C47.1621 40.6327 46.5077 39.6566 46.0622 38.5823C45.6166 37.508 45.3887 36.3567 45.3913 35.1944ZM50.9323 35.1944C50.9323 37.0989 52.4613 38.6179 54.2765 38.6179C55.1604 38.6082 56.0054 38.2544 56.6305 37.6323C57.2555 37.0101 57.611 36.1691 57.6208 35.2894C57.6208 33.4827 56.0917 31.9608 54.2765 31.9608C52.4613 31.9608 50.9323 33.3906 50.9323 35.1944ZM74.0587 42.6168L69.6623 36.9119V40.5253C69.6623 41.6645 69.4715 42.1421 68.9946 42.7146C68.7469 43.0366 68.4286 43.2981 68.0639 43.4791C67.6992 43.66 67.2979 43.7558 66.8904 43.7589C66.029 43.7589 65.266 43.2842 64.6908 42.6197C64.2138 42.0501 64.1185 41.5754 64.1185 40.3383V29.6852C64.1185 27.9735 65.2631 26.8313 66.9858 26.8313C67.7488 26.8313 68.4194 27.119 68.9917 27.8785L73.4835 33.3935V30.1599C73.4835 29.0206 73.6742 28.5431 74.0558 27.9735C74.5327 27.2111 75.3941 26.8313 76.2525 26.8313C77.111 26.8313 77.7815 27.119 78.3539 27.7836C78.8337 28.3532 79.0215 28.9228 79.0215 29.97V40.2434C79.0215 41.5754 78.8308 42.0501 78.3539 42.7146C77.8769 43.3792 77.111 43.7589 76.2525 43.7589C75.3941 43.7589 74.631 43.3763 74.0587 42.6168ZM82.1808 41.092C81.1287 39.7601 80.8425 38.523 80.8425 36.3394V30.4418C80.8425 28.825 80.9379 28.4453 81.3223 27.8728C81.8946 27.2082 82.756 26.8256 83.5191 26.8256C84.285 26.8256 85.0481 27.1133 85.525 27.6829C86.1002 28.2525 86.291 28.8221 86.291 29.9643V36.6214C86.291 37.8584 86.8633 38.6179 87.82 38.6179C88.8693 38.6179 89.4445 37.8556 89.4445 36.7163V29.9614C89.4445 28.7243 89.5398 28.4424 90.0197 27.775C90.2794 27.4739 90.602 27.2328 90.9649 27.0683C91.3278 26.9039 91.7223 26.8201 92.121 26.8227C92.887 26.8227 93.7454 27.2053 94.2252 27.775C94.7975 28.3446 94.8929 28.9142 94.8929 30.344V36.3366C94.8929 38.6179 94.3206 40.2347 93.1731 41.5667C91.8349 43.0857 89.8289 44.038 87.8229 44.038C85.6204 44.0437 83.5191 42.9016 82.1808 41.092ZM100.434 42.6168C100.052 42.0472 99.9541 41.5725 99.9541 40.4275V31.9637H98.425C97.4683 31.9637 96.896 31.7767 96.4191 31.2991C95.8468 30.7295 95.5606 30.1599 95.5606 29.4925C95.5606 28.5431 96.2283 27.4959 96.9943 27.2111C97.5666 26.9234 97.7574 26.9234 100.052 26.9234H107.507C108.842 27.1133 109.704 28.1605 109.704 29.3946C109.704 30.157 109.417 30.9165 108.845 31.3912C108.464 31.7738 107.698 31.9608 106.744 31.9608H105.405V40.3326C105.405 41.3769 105.31 41.9494 104.926 42.519C104.446 43.2814 103.683 43.756 102.729 43.756C101.775 43.756 101.006 43.2814 100.434 42.6168ZM109.414 39.8579C109.414 38.4309 110.559 37.3866 111.897 37.3866C112.565 37.3866 113.14 37.5765 113.903 38.149C115.048 39.0984 115.242 39.1933 115.719 39.1933C116.1 39.1933 116.386 38.9085 116.386 38.4309C116.386 38.0512 116.291 37.8613 116.005 37.6714C115.814 37.5765 115.716 37.4816 114.857 37.1939C114.38 37.0069 113.903 36.9091 113.522 36.7192C111.036 35.8619 109.891 34.2479 109.891 31.9637C109.891 28.7301 112.374 26.5436 116.008 26.5436C119.066 26.5436 121.358 28.0626 121.358 30.157C121.358 31.3941 120.499 32.3463 119.254 32.3463C118.49 32.3463 117.918 32.1564 116.961 31.3941C116.389 30.9194 116.103 30.8245 115.817 30.8245C115.435 30.8245 115.051 31.1121 115.051 31.489C115.051 32.0586 115.432 32.2514 116.771 32.7261C118.204 33.1087 119.54 33.8682 120.306 34.4407C121.358 35.2951 122.025 36.817 122.025 38.4338C122.025 39.8607 121.453 41.2877 120.401 42.3349C119.349 43.4741 117.82 44.0466 115.719 44.0466C112.186 44.0437 109.414 42.1421 109.414 39.8579Z" fill="#AE3D91"/>
<path d="M10.9894 32.3434C10.9894 32.4383 10.9894 32.5333 10.8941 32.6282H10.7033C10.6079 32.4412 10.4142 32.2485 10.3217 31.9637C10.6079 31.9608 10.8941 32.0586 10.9894 32.3434ZM13.5706 31.4861C13.5706 31.676 13.7614 31.9608 13.666 32.1507C13.7614 32.2456 13.7614 32.3405 13.666 32.4383C13.3798 32.7232 12.9 32.8181 12.4231 32.7232C11.9462 32.4383 11.8508 31.8687 11.5617 31.4861C11.4664 31.2962 11.4664 31.1063 11.6571 31.0114C11.8479 30.8215 12.0387 31.0114 12.2294 31.0114C12.5156 31.3912 12.5156 31.9608 12.8971 32.1507C13.0879 31.8658 12.8971 31.3883 12.7064 31.1063C12.7064 31.0114 12.611 30.8187 12.7064 30.7237C12.8017 30.5367 12.9925 30.6288 13.1833 30.6288C13.3798 30.8215 13.4752 31.2042 13.5706 31.4861ZM11.0848 31.3912C11.4693 31.6788 11.7525 32.2485 11.66 32.7232C11.5439 32.8956 11.3875 33.0374 11.2043 33.1366C11.0211 33.2358 10.8164 33.2894 10.6079 33.2928C10.5125 33.2928 10.3217 33.2928 10.3217 33.2007C10.131 32.913 9.94021 32.6282 9.84193 32.3434C9.74655 32.2485 9.84193 32.1535 9.74655 32.0557C9.65117 31.8687 9.4604 31.676 9.55578 31.4861C9.93732 31.2013 10.4142 31.2962 10.8941 31.2962L11.0848 31.3912ZM15.0996 29.8722C15.3887 30.4418 15.6719 31.0114 15.8656 31.6788C15.7702 31.7738 15.7702 31.8687 15.6748 31.8687C15.3887 31.9608 15.1025 31.6788 14.8164 31.581H14.7181C14.7181 31.8687 14.9089 32.0557 14.7181 32.2456C14.5273 32.3405 14.3337 32.3405 14.3337 32.2456C14.0475 31.676 13.666 31.1063 13.5706 30.4389C13.9521 29.9613 14.3337 30.7237 14.8135 30.8187H14.9089C14.9089 30.5338 14.5273 30.249 14.8135 29.9613C14.9089 29.8722 15.0014 29.8722 15.0996 29.8722ZM17.201 29.2047C17.201 29.4895 17.201 29.8693 17.0102 30.1541C17.201 30.344 17.3918 30.4418 17.49 30.5367C17.578 30.5808 17.6515 30.6488 17.7022 30.7328C17.7528 30.8168 17.7785 30.9134 17.7762 31.0114C17.6808 31.2013 17.49 31.2962 17.2993 31.2013L16.7241 30.9136C16.7241 31.2013 16.9148 31.4832 16.6287 31.5782C16.5333 31.6731 16.4379 31.6731 16.3396 31.6731C16.0535 31.1984 15.8627 30.6259 15.6719 30.0563C15.6719 29.9613 15.4812 29.6765 15.6719 29.5816C15.8627 29.5816 15.961 29.4867 16.0564 29.5816C16.1494 29.792 16.2785 29.9848 16.4379 30.1512L16.8194 29.2018C16.9148 29.1098 17.1056 29.0149 17.201 29.2047ZM17.967 28.825C18.1577 29.3946 18.5393 29.9642 18.5393 30.5396C18.4439 30.7266 18.3485 30.8244 18.1577 30.7266C17.967 30.7266 18.0623 30.4418 17.967 30.4418C17.7762 29.8722 17.3918 29.3946 17.5854 28.825C17.5825 28.6351 17.8716 28.6351 17.967 28.825ZM19.9729 27.9705C20.1637 28.5402 20.5452 29.1098 20.4498 29.6823L20.0683 29.8722C19.7821 29.8722 19.5885 29.5845 19.3052 29.4895C19.2098 29.6794 19.3052 29.8722 19.3052 30.0592C19.3052 30.1541 19.2098 30.3468 19.1145 30.4418C18.9237 30.6288 18.9237 30.2519 18.7329 30.1541C18.5421 29.6794 18.256 29.0148 18.3514 28.3474C18.7329 28.1575 19.1173 28.6351 19.5943 28.7272C19.5943 28.4423 19.4035 28.0626 19.4989 27.8727C19.5943 27.7778 19.6897 27.585 19.8804 27.7778L19.9729 27.9705ZM20.6406 27.398C20.736 27.6857 20.8314 28.1604 20.5452 28.3503C20.2562 28.3503 20.3545 27.9705 20.2562 27.7807C20.2562 27.5908 20.2562 27.398 20.3516 27.211C20.5452 27.2082 20.5452 27.2082 20.6406 27.398Z" fill="#CF4037"/>
<path d="M12.1369 34.4379C12.1369 34.5299 12.3276 34.7227 12.2322 34.9125C12.1369 34.9125 12.0415 35.0075 11.9461 34.9125C11.7553 34.7227 11.7553 34.6249 11.6599 34.3429C11.8507 34.3429 11.9461 34.3429 12.1369 34.4379ZM14.1428 33.9603C14.2382 34.1502 14.2382 34.248 14.1428 34.4379C14.0474 34.5299 13.8567 34.3429 13.7613 34.3429C13.5705 34.248 13.4751 34.0552 13.5705 33.8682C13.6659 33.7733 13.8567 33.8682 13.9521 33.8682L14.1428 33.9603ZM14.6226 33.5805C14.8134 33.9603 15.0996 34.3429 14.8134 34.7198C14.6226 35.0075 14.0503 35.1024 13.6688 35.0075C13.2873 34.9125 12.9982 34.5299 12.8999 34.1502C12.8999 33.9603 12.8999 33.6755 12.9953 33.4856C13.1861 33.2957 13.4722 33.2008 13.7584 33.1059C14.0474 33.2008 14.5244 33.2929 14.6226 33.5805ZM12.7092 34.1502L12.8999 34.6249C12.9953 34.8147 12.8999 35.1024 12.7092 35.2894C12.4201 35.5771 11.9432 35.5771 11.5617 35.5771C11.3709 35.4822 11.3709 35.2894 11.1801 35.1024C11.0847 34.8147 10.894 34.4379 10.7986 34.1502C10.894 34.0552 10.7032 33.9603 10.894 33.8654C11.1817 33.692 11.5217 33.6255 11.8539 33.6776C12.186 33.7298 12.489 33.8971 12.7092 34.1502ZM16.2471 32.2485C16.5332 32.9131 17.0101 33.4856 16.8194 34.1502C16.4378 34.4379 16.1517 33.9603 15.7672 33.8654C15.5765 34.0552 15.958 34.5299 15.5765 34.6249C15.4811 34.6249 15.3857 34.5299 15.2903 34.4379C15.1949 33.8682 14.718 33.4856 14.8105 32.916C14.9059 32.7261 15.0967 32.821 15.2903 32.821L15.958 33.1087C15.8626 32.821 15.7672 32.5391 15.958 32.3464C15.958 32.2514 16.0534 32.2514 16.0534 32.2514C16.1488 32.2485 16.2471 32.1536 16.2471 32.2485ZM18.253 31.7739C18.4438 32.2485 18.7299 32.9131 18.4438 33.3907C18.3484 33.5805 18.0623 33.7733 17.7761 33.8682C17.0101 33.8682 16.9176 33.1059 16.6315 32.5362C16.6315 32.4413 16.5361 32.3464 16.6315 32.2485C16.8223 32.1536 16.9176 32.0587 17.1084 32.1536C17.3946 32.4413 17.2992 33.1059 17.8744 33.2008C18.0651 32.8182 17.779 32.3435 17.6836 31.9609C17.6836 31.8688 17.6836 31.7739 17.779 31.676C17.9669 31.584 18.1576 31.6789 18.253 31.7739ZM21.0221 30.5368C20.9267 30.6289 21.1174 30.7238 21.0221 30.8216C20.7359 30.8216 20.6405 31.0115 20.4498 30.9165C20.3544 31.0115 20.4498 31.1064 20.4498 31.1064C20.7359 31.1064 21.1174 31.1064 21.3082 31.2934C21.4036 31.3884 21.499 31.5811 21.499 31.771C21.3082 32.2457 20.733 32.5334 20.2561 32.5334C20.1607 32.5334 20.1607 32.4384 20.0653 32.3435C20.0653 32.2485 20.1607 32.0558 20.2561 32.0558C20.4469 32.0558 20.7359 31.9609 20.8313 31.771C20.8313 31.676 20.7359 31.5811 20.7359 31.676C20.4498 31.676 20.2561 31.676 19.9728 31.5811C19.8774 31.5811 19.8774 31.3912 19.7821 31.2934L19.4959 31.5811C19.5913 32.0558 19.7821 32.4384 19.7821 32.8182C19.7821 32.9131 19.6867 33.008 19.4959 33.008H19.3051C19.0161 32.7204 19.1144 32.1507 18.8253 31.8688C18.7299 31.7739 18.4438 31.8688 18.4438 31.6789C18.3484 31.584 18.4438 31.3912 18.5392 31.2963C18.7299 31.1093 19.2069 31.0115 19.4959 30.9165C19.5913 31.0115 19.7821 31.0115 19.7821 31.1064C19.7821 31.0115 19.8774 31.0115 19.8774 30.9165C19.9299 30.7548 20.0315 30.6131 20.1681 30.5111C20.3048 30.4091 20.4698 30.3518 20.6405 30.3469C20.784 30.3706 20.917 30.4367 21.0221 30.5368Z" fill="#AE3D91"/>
<path d="M6.68835 7.42385C7.83296 8.5631 7.93124 10.3727 7.35604 11.7996C7.07278 11.9895 6.88201 12.2772 6.59296 12.1793C6.50047 11.9895 6.21143 11.9895 6.11604 11.7996C6.21143 11.6097 6.40219 11.4198 6.59296 11.4198C6.9745 10.3755 7.07278 9.32547 6.40219 8.28116C5.82989 7.6166 4.68238 7.32892 3.82392 7.42385C2.77181 8.09129 1.52892 8.66091 1.24276 10.1828C1.14738 11.0401 1.81507 11.5148 2.39027 11.9895C2.87008 12.2772 3.53777 12.5591 4.01469 12.0844C4.587 11.5148 4.87604 10.8502 4.87604 10.1828C4.01469 9.7081 3.63316 11.322 2.87008 10.4676C2.8543 9.90546 3.05965 9.3594 3.44239 8.94572C4.01469 8.5631 4.68527 8.75585 5.1622 9.23054C5.63912 9.8951 6.21432 10.8473 5.82989 11.7047C5.1622 12.467 4.30085 12.9417 3.4395 13.5113C2.38738 13.2236 1.052 12.654 0.667568 11.417C0.190646 10.7524 0.0952617 9.7081 0.47969 8.85079C0.861227 7.89854 1.43642 7.13904 2.29488 6.75642C3.82392 6.56942 5.44835 6.28461 6.68835 7.42385Z" fill="#CF4037"/>
<path d="M8.41127 12.0845L8.50666 11.9895L8.60204 11.8946C8.79281 11.6098 8.88819 11.325 9.08185 11.0402C9.17435 10.6575 9.26973 10.3756 9.36512 9.99299C9.4605 9.32555 9.4605 8.66099 8.88819 8.09137C8.69743 7.61668 8.41127 7.32899 8.21761 6.94924C7.96581 6.68727 7.74205 6.39995 7.54992 6.09193C7.07011 5.42737 6.68857 4.85487 6.4978 3.81056C6.68857 2.47857 7.54992 1.24438 8.88819 0.576947C9.59443 0.298845 10.3321 0.107557 11.0849 0.00732422C12.614 0.102261 14.0476 0.956696 14.4292 2.38363C14.5245 3.81056 14.0476 5.52231 12.5186 6.18687C11.9463 6.37674 11.4694 6.37674 11.0849 6.18687C10.8942 6.09193 10.7034 5.90206 10.4172 5.81C10.2265 5.71506 10.0357 5.52231 9.84493 5.42737C9.55878 5.14256 9.55878 4.85775 9.55878 4.478C9.55878 4.28813 9.55878 4.19031 9.65416 4.00044C9.65416 3.81056 9.74954 3.71563 9.74954 3.52288C9.91719 3.01654 10.4375 2.7231 11.0849 2.28582H11.1803L11.7526 2.57638C11.9434 2.76338 12.137 2.86119 12.137 3.146C12.3278 3.9055 11.9463 3.9055 11.5618 3.9055H11.1803C11.0849 3.9055 10.9895 4.00044 10.9895 4.19031C11.2757 4.665 12.0417 4.75994 12.7094 4.75994C13.0909 4.38019 13.4724 3.81056 13.377 3.24094L13.4724 3.146C13.3799 3.05107 13.3799 2.95325 13.3799 2.95325C13.2845 2.76338 13.2845 2.66844 13.2845 2.47857C13.1892 2.19088 13.1892 1.90894 12.903 1.81401C12.4232 1.62413 11.9463 1.33644 11.4694 1.24438C11.0121 1.06943 10.5126 1.03535 10.0357 1.14657C9.26973 1.43138 8.60204 1.90894 8.313 2.57638C7.64531 3.71563 7.93146 5.04762 8.69743 6.09193C10.0357 7.42393 10.4172 7.99355 10.5126 9.70817C10.3219 10.9452 9.26973 11.7047 8.79281 12.0845L8.69743 12.1794H8.60204L8.50377 12.2772C8.41127 12.2772 8.313 12.0845 8.41127 12.0845Z" fill="#CF4037"/>
<path d="M15.3857 12.3721C13.6659 12.654 11.2755 13.1316 9.55572 13.986C6.59302 14.9382 3.1534 16.4601 2.0059 19.5039L3.05802 19.5988C4.68244 18.0769 6.59302 16.8427 8.60188 15.6057C8.88803 15.7927 9.26957 15.9854 9.65399 15.7927C10.3217 14.3657 11.4692 15.7927 12.3305 14.8433C13.2873 15.1281 14.0503 14.5556 14.9117 14.1787C15.2903 14.0838 15.8627 14.3686 16.0563 14.8433C16.4378 14.4607 17.0102 14.1787 17.2009 13.6062C17.7732 12.1793 15.8627 13.0366 15.3857 12.3721ZM18.3484 14.2737C15.5765 17.0297 12.0415 18.5516 8.12495 19.6937L7.83591 20.0764C6.1161 20.2662 4.39629 21.1207 2.67648 21.0257L3.15629 23.215C4.11303 24.2593 4.01475 26.5436 5.82995 26.6385C8.22034 26.6385 10.9923 26.8255 12.9982 25.3065C14.718 25.0188 16.3425 23.7847 17.8715 22.8324C18.1577 21.3105 20.3544 22.0729 20.5452 20.7409C20.1636 18.5516 19.3052 16.4601 18.3484 14.2737ZM22.4586 35.2922C21.8834 31.3911 20.7359 27.1132 19.9729 23.1172C18.1577 24.9239 15.7673 25.7812 13.5705 26.8255C11.7525 28.3503 9.26957 28.0626 7.16822 28.6351C8.88803 32.1535 11.0848 35.577 12.8046 38.9056C13.4723 40.1426 13.6659 41.7566 14.8105 42.7088C17.964 44.0408 20.6405 41.3768 22.9327 39.5701C22.4586 38.241 22.3604 36.5264 22.4586 35.2922ZM14.5244 11.135C15.958 10.3755 17.1055 11.6097 18.5392 11.5148C20.7359 13.2265 20.3544 17.2196 21.6927 19.314C22.265 19.314 22.554 19.8836 22.4586 20.3583C22.0742 20.7409 21.9788 21.4055 21.5019 21.4055C21.6927 22.5447 21.788 23.6868 22.3604 24.8261C22.265 25.9682 22.6465 27.3951 22.8373 28.8221C22.8373 31.9608 24.7507 34.4349 24.4617 37.6685C24.6525 38.6179 25.2248 39.76 24.3663 40.3325L24.1755 40.2376C23.6986 42.1392 21.8834 43.3762 19.9729 43.9459C18.253 44.2335 16.2442 44.6104 14.3336 44.9902C13.0907 43.569 12.6138 41.5696 11.5617 39.9527C9.6511 36.4343 7.54976 32.3434 5.44552 28.5401L3.53783 27.9705C2.77186 25.4964 1.05494 23.6897 0.384364 21.2156C-0.286218 19.7887 1.05205 18.0769 1.9134 17.1247C4.68244 15.0332 7.2636 12.5591 10.6078 11.5148C11.8507 11.6097 13.1861 11.135 14.5244 11.135Z" fill="#CF4037"/>
</g>
<defs>
<clipPath id="clip0_54_38">
<rect width="127" height="45" fill="white" transform="translate(0 0.000244141)"/>
</clipPath>
</defs>
</svg>
