<svg width="126" height="40" viewBox="0 0 126 40" fill="none" xmlns="http://www.w3.org/2000/svg">
<path d="M65.5996 11.1266H61.9504L59.8923 14.5049H63.5396L65.5996 11.1266ZM75.066 20.0155C73.1544 20.1755 69.7769 21.9067 67.9374 25.6892C66.0978 29.4717 66.0911 31.8067 66.0911 31.8067C66.0911 31.8067 67.0612 30.7301 68.5485 29.6028C70.0358 28.4754 71.1427 28.0749 71.1427 28.0749C71.1427 28.0749 71.4187 26.6862 72.1055 25.2337C72.7735 23.8208 73.8334 22.3499 75.1448 22.0161C77.8031 21.3387 76.5301 26.2504 74.5776 29.4532C73.5281 31.1745 69.8056 36.1214 66.6009 36.1214C63.3962 36.1214 62.7777 32.9934 63.4536 30.0688C64.1288 27.1448 65.0636 23.4296 69.7391 16.6792C74.4146 9.92879 79.4754 5.92687 82.4048 4.24514C85.4135 2.51891 86.6395 3.27541 86.6395 3.27541C86.6395 3.27541 82.7985 5.67038 80.6134 8.55176C78.5241 11.3058 77.2774 14.4047 78.247 15.9233C79.1701 17.3702 82.4243 17.3974 86.0076 12.16C89.5444 6.98993 88.6512 3.91571 88.6512 3.91571C88.6512 3.91571 89.0786 3.7748 89.3655 3.73586C91.0903 3.50347 92.472 3.96392 94.6113 5.07457C96.8526 6.23837 99.0029 8.1049 101.949 9.63212C102.837 8.64817 103.824 7.60304 104.862 6.58325C100.89 4.62586 97.8746 1.83595 93.9788 1.56833C90.5878 1.33595 87.9143 2.58689 87.9143 2.58689C87.9143 2.58689 86.88 1.16104 83.6893 1.62643C80.4986 2.09245 70.6683 6.2532 62.3045 19.8121C54.7424 32.0713 58.3055 39.0967 63.7411 39.0164C69.6335 38.9286 75.2388 32.295 77.1358 26.8246C79.0327 21.3542 76.7908 19.8715 75.066 20.0155ZM86.6334 8.62407C85.6431 11.0679 84.1851 12.7756 82.7503 14.0797C80.9101 15.7527 79.9003 15.6965 79.4632 15.3603C78.3215 14.4802 79.8533 11.1612 82.5122 8.19328C85.1601 5.23712 87.4399 4.31745 87.4399 4.31745C87.4399 4.35206 87.819 5.69386 86.6334 8.62407ZM119.446 5.06035C116.75 6.81625 113.011 8.40651 109.423 8.05607C108.516 9.00974 107.543 10.1086 106.566 11.3108C112.794 12.5543 118.241 8.64879 121.141 5.32117C122.95 3.24636 123.843 1.39404 123.843 1.39404C123.843 1.39404 122.116 3.32114 119.446 5.06035Z" fill="#F40009"/>
<path d="M116.5 20.4671H112.663L112.039 21.4424C112.039 21.4424 111.257 20.0129 109.931 20.0357C107.66 20.0753 105.387 21.8306 102.746 24.8751C100.81 27.1057 97.6006 32.0718 97.6006 32.0718C97.6006 32.0718 95.1383 35.913 93.8928 35.612C91.7693 35.0984 95.6749 27.1446 95.6749 27.1446C95.6749 27.1446 97.7282 25.8609 100.389 23.5945C102.064 22.168 103.992 20.2057 105.764 18.3868C107.375 16.7322 109.274 14.4856 111.078 12.0245C110.616 12.0987 110.142 12.1487 109.659 12.1728C108.041 14.3336 106.313 16.2674 104.843 17.8046C102.656 20.0926 100.644 21.9647 99.1813 23.1588C97.7801 24.3022 96.8814 24.817 96.8814 24.817C96.8814 24.817 99.5543 19.2601 104.009 13.1203C108.465 6.98115 114.702 1.27773 114.213 3.98358C114.074 4.76047 113.597 5.87483 112.877 7.19747C113.384 7.09055 113.876 6.95705 114.351 6.80501C115.424 4.56208 115.79 2.71347 114.989 2.17947C111.72 0.000204206 103.406 9.01765 99.2374 14.2551C95.0699 19.4925 91.298 27.4963 91.298 27.4963C91.298 27.4963 90.6459 27.7732 89.9249 27.9116C89.47 27.9994 89.2759 27.9802 89.2014 27.9506C89.1641 27.9351 89.1599 27.9092 89.1599 27.9092C89.1599 27.9092 92.8262 20.9709 89.0726 20.0506C85.4502 19.163 79.1739 25.9468 76.9423 30.6657C75.4111 33.9031 74.5472 37.9785 77.1731 38.9489C80.017 40.0002 84.8476 34.7442 85.9832 33.217C87.1188 31.6892 88.5365 29.149 88.5365 29.149C88.5365 29.149 89.2301 29.1119 89.6092 29.0557C90.3345 28.9475 90.674 28.8573 90.674 28.8573C90.674 28.8573 90.2039 30.1039 89.6953 31.6842C88.7471 34.6311 87.8918 38.8475 91.3053 39.0459C93.4801 39.1714 96.6707 35.1954 96.6707 35.1954C96.6707 35.1954 95.8123 38.7307 98.6348 39.0459C100.719 39.2783 103.751 36.0193 103.751 36.0193C103.751 36.0193 103.091 38.8271 105.203 39.0744C107.011 39.2863 109.579 37.1398 111.684 34.7782C113.983 32.1997 115.746 29.3758 115.746 29.3758H114.409C114.409 29.3758 111.451 33.921 109.374 35.1373C107.669 36.1361 108.253 34.536 108.77 33.6973C109.341 32.772 116.498 20.4671 116.498 20.4678L116.5 20.4671ZM87.2641 29.0278C87.2116 29.1496 86.2512 30.8412 85.2237 32.1713C84.1168 33.6045 82.0904 35.7616 80.8724 35.3054C78.9681 34.5922 81.0635 30.3925 82.4335 28.3554C83.8036 26.3183 83.9593 26.1805 83.9977 26.1273C84.0362 26.0742 84.0747 26.0253 84.1083 26.0884C84.1418 26.1514 84.5778 26.9883 85.4386 27.7145C86.3031 28.4438 87.1347 28.8288 87.2019 28.8529C87.269 28.877 87.3173 28.9061 87.2641 29.0272V29.0278ZM88.1207 27.5142C88.0005 27.7169 87.9144 27.7268 87.6646 27.6595C87.2251 27.5389 85.4038 26.6866 85.4179 24.796C85.4307 22.9536 87.9962 21.1489 89.0023 21.9202C89.9414 22.6396 89.4926 24.4789 89.1385 25.4172C88.785 26.3547 88.1995 27.3813 88.1207 27.5142ZM105.553 32.0718C105.046 32.7751 104.622 33.4105 104.24 33.8567C103.423 34.8116 102.89 35.256 102.415 35.3734C102.176 35.4321 101.879 35.4179 101.683 35.2974C100.985 34.8679 101.474 33.1954 102.688 30.9469C103.798 28.8919 105.082 26.8356 107.191 24.4684C109.309 22.092 110.119 21.9777 110.712 22.0049C111.211 22.0265 111.282 22.5574 111.282 22.5574C111.282 22.5574 111.246 22.6804 111.167 22.8195C110.468 24.0463 106.946 30.1379 105.552 32.0718H105.553ZM48.9515 35.0446C46.6247 33.5891 43.6398 32.6552 40.2104 32.6249C31.3758 32.5471 21.7568 36.892 15.2417 36.9507C7.5574 37.0187 7.17459 31.0341 7.74423 27.7478C8.97019 20.668 13.9308 13.9139 17.1203 10.3526C20.3104 6.79141 23.6531 4.02808 26.4323 3.32164C29.2115 2.6152 28.9501 4.75491 28.6101 5.04725C28.259 5.05467 27.5856 5.13131 27.2034 5.39893C26.6051 5.81673 25.8059 6.58189 25.7558 7.79513C25.6697 9.66413 28.0557 9.9917 29.7805 6.07817C30.957 3.40879 29.0912 1.59726 27.5416 1.42297C25.4163 1.18316 22.1683 1.93101 18.2913 4.4533C11.5436 8.84274 2.518 18.5901 2.28782 29.4049C2.15655 35.5743 6.13789 39.0459 11.6004 39.0459C17.0629 39.0459 24.4792 35.6596 31.7208 35.5731C36.2046 35.5341 39.1065 37.125 40.5761 39.7159C40.5761 39.7159 42.0365 37.2566 45.2888 37.125C48.5064 36.994 52.0487 37.9068 54.9568 39.9761C53.9866 38.557 51.2441 36.4785 48.9509 35.0446H48.9515Z" fill="#F40009"/>
<path d="M28.8324 10.7482C25.1288 9.79265 18.9783 16.1747 16.3865 21.3688C14.7881 24.5729 14.0872 28.5995 16.9329 29.6471C19.7787 30.6947 24.6068 25.4425 25.7424 23.9152C26.878 22.3874 28.7365 19.3274 28.7365 19.3274C28.7365 19.3274 29.3068 19.2162 29.6804 19.1284C30.0541 19.0406 30.6579 18.8663 30.6579 18.8663C30.6579 18.8663 29.9576 20.1296 29.3257 21.4245C28.5766 22.9597 26.541 28.0704 30.4711 29.6032C34.2259 31.0674 39.5712 24.9616 39.852 24.846C39.852 24.846 38.261 29.0068 40.7324 29.6471C43.4445 30.3492 46.4166 26.8319 46.4166 26.8319C46.4166 26.8319 45.7908 29.4722 47.9039 29.72C51.688 30.1632 58.3813 20.3651 58.3813 20.3651H57.0443C57.0443 20.3651 53.6381 24.8022 52 25.7187C50.3619 26.6353 50.9511 25.0067 51.3961 24.2787C51.9639 23.3522 59.2001 11.1122 59.2001 11.1122H55.3628L54.9177 11.8248C54.9177 11.8248 54.1271 10.6029 52.8053 10.6901C48.9595 10.9441 44.3835 17.1494 42.3711 19.8843C40.3594 22.6198 36.0191 27.8424 33.7338 26.9116C31.2434 25.8967 33.7198 21.2378 35.3578 18.5023C37.1412 15.5245 40.302 12.5751 41.5518 12.5523C43.0897 12.5232 42.4859 13.9342 42.4859 13.9342C42.4859 13.9342 41.3363 13.789 40.5029 14.8508C39.9131 15.6018 39.4247 16.6982 39.9851 17.2946C40.8906 18.2582 42.0695 17.2798 42.7735 16.1883C44.9684 12.7871 43.3626 10.9948 41.6385 10.7333C37.9655 10.1752 34.5818 14.9522 32.0096 16.7272C30.225 17.9578 29.4796 17.862 29.4796 17.862C29.4796 17.862 32.5756 11.7136 28.833 10.7475L28.8324 10.7482ZM45.4605 21.7471C46.571 19.6914 48.084 17.7069 50.053 15.2192C52.0219 12.7315 53.0019 12.53 53.5947 12.5572C54.0935 12.5795 54.1643 13.1098 54.1643 13.1098C54.1643 13.1098 49.8863 20.6556 48.3343 22.8089C47.8275 23.5123 47.3941 24.1081 47.0118 24.5549C46.1949 25.5098 45.6015 25.9715 45.1436 26.0865C44.9043 26.1458 44.6075 26.131 44.4103 26.0098C43.7131 25.5803 44.2449 23.995 45.4599 21.7471H45.4605ZM27.3042 19.2984C27.2511 19.4195 26.0294 21.4646 25.0025 22.7947C23.8962 24.228 21.8515 26.3936 20.6334 25.9375C18.7292 25.2243 20.7604 21.0536 22.1305 19.0171C23.5005 16.98 23.7014 16.718 23.7405 16.6654C23.7789 16.6117 23.8168 16.5628 23.8504 16.6265C23.884 16.6895 24.3199 17.5968 25.2638 18.2075C26.2077 18.8187 27.1754 19.1 27.2425 19.1241C27.3097 19.1482 27.3579 19.1778 27.3048 19.2984H27.3042ZM28.8971 16.1147C28.543 17.0536 28.2267 17.6451 28.1614 17.7847C28.0564 18.0085 27.7932 17.9368 27.7932 17.9368C27.4935 17.9232 25.163 17.3849 25.1765 15.4942C25.1893 13.6518 27.7554 11.8471 28.761 12.6184C29.7 13.3378 29.2512 15.1772 28.8971 16.1147ZM113.613 36.803C113.389 36.6744 113.14 36.6107 112.865 36.6107C112.591 36.6107 112.342 36.675 112.118 36.803C111.894 36.9315 111.718 37.1058 111.589 37.3277C111.461 37.5489 111.396 37.79 111.396 38.0496C111.396 38.3092 111.461 38.5545 111.589 38.7746C111.718 38.994 111.894 39.1683 112.118 39.2962C112.342 39.4248 112.591 39.4884 112.865 39.4884C113.14 39.4884 113.389 39.4241 113.613 39.2962C113.837 39.1683 114.013 38.994 114.141 38.7746C114.27 38.5551 114.334 38.3135 114.334 38.0496C114.334 37.7857 114.27 37.5489 114.141 37.3277C114.013 37.1064 113.837 36.9315 113.613 36.803ZM113.876 38.6454C113.779 38.8209 113.642 38.9587 113.467 39.0595C113.292 39.1596 113.091 39.2097 112.865 39.2097C112.64 39.2097 112.439 39.1596 112.264 39.0595C112.089 38.9594 111.953 38.8215 111.855 38.6454C111.758 38.4699 111.709 38.2708 111.709 38.0496C111.709 37.8283 111.758 37.6349 111.855 37.4593C111.952 37.2838 112.089 37.146 112.266 37.0452C112.444 36.9445 112.643 36.895 112.865 36.895C113.088 36.895 113.287 36.9451 113.464 37.0452C113.641 37.1454 113.779 37.2832 113.876 37.4593C113.973 37.6349 114.022 37.832 114.022 38.0496C114.022 38.2671 113.973 38.4699 113.876 38.6454Z" fill="#F40009"/>
<path d="M113.417 38.026C113.459 37.9574 113.479 37.8808 113.479 37.7968C113.479 37.6806 113.442 37.5835 113.368 37.5044C113.293 37.4253 113.193 37.3857 113.069 37.3857H112.324V38.688H112.652V38.2133H112.901L113.204 38.688H113.578L113.24 38.1818C113.316 38.1466 113.376 38.0947 113.417 38.026ZM113.105 37.8888C113.08 37.9117 113.047 37.9228 113.006 37.9228H112.652V37.6701H113.006C113.047 37.6701 113.08 37.6818 113.105 37.704C113.129 37.7269 113.141 37.7578 113.141 37.7961C113.141 37.8345 113.129 37.8654 113.105 37.8882V37.8888Z" fill="#F40009"/>
</svg>
