<svg width="139" height="34" viewBox="0 0 139 34" fill="none" xmlns="http://www.w3.org/2000/svg">
<g clip-path="url(#clip0_54_135)">
<path d="M138.594 5.28832C138.594 5.94241 138.132 6.38222 137.588 6.38222V6.37875C137.029 6.38222 136.578 5.94227 136.578 5.28832C136.578 4.63478 137.029 4.19844 137.588 4.19844C138.132 4.19844 138.594 4.63478 138.594 5.28832ZM139 5.28832C139 4.39004 138.332 3.86743 137.588 3.86743C136.839 3.86743 136.172 4.39018 136.172 5.28832C136.172 6.18701 136.839 6.70934 137.588 6.70934C138.332 6.70934 139 6.18715 139 5.28832ZM137.353 5.40811H137.506L137.856 6.05177H138.24L137.852 5.38265C138.053 5.36707 138.217 5.26578 138.217 4.9836C138.217 4.63464 137.987 4.52124 137.595 4.52124H137.029V6.05163H137.353V5.40811ZM137.353 5.14904V4.7806H137.58C137.704 4.7806 137.871 4.79215 137.871 4.94993C137.871 5.11926 137.785 5.14918 137.64 5.14918L137.353 5.14904Z" fill="black"/>
<path d="M116.696 33.999H0L1.30894 30.4944C2.60299 27.0294 9.54508 8.46204 10.2029 6.9553C10.9766 5.08528 12.2473 3.18409 13.8301 2.02673C15.9813 0.518748 18.353 -0.0190227 20.7929 0.00407435L21.1078 0.00170898H137.349L136.022 3.51566C133.588 9.95778 127.652 25.6624 127.032 27.2192C126.087 29.6459 124.697 31.0836 123.145 32.1632C121.762 33.0979 119.737 33.999 116.696 33.999Z" fill="#211E1E"/>
<path d="M135.498 1.28906L134.83 3.05724C132.399 9.49365 126.468 25.1878 125.847 26.7441C125.01 28.8945 123.806 30.1393 122.428 31.0985C121.233 31.9064 119.459 32.7124 116.696 32.7124H1.84229L2.50124 30.9484C3.79184 27.4919 10.713 8.97606 11.3686 7.47336C12.0846 5.73621 13.2276 4.055 14.5667 3.07574C16.4548 1.75323 18.5452 1.26833 20.7837 1.29031L21.1106 1.2892L135.498 1.28906Z" fill="#EB1928"/>
<path d="M129.369 2.88281C127.006 9.51903 121.62 24.6547 121.047 26.1799C120.377 28.0067 119.461 29.0073 118.379 29.8064C117.49 30.444 116.142 31.1182 113.905 31.1182H7.9646C9.44576 26.9064 15.5647 9.53211 16.1603 8.08075C16.772 6.49569 17.7009 5.09595 18.6624 4.34975C20.1071 3.27421 21.7092 2.86556 23.5544 2.88448L23.8786 2.88281H129.369Z" fill="white"/>
<path d="M112.677 25.679C112.515 26.0141 111.925 26.6608 111.199 26.4327C110.799 26.3049 110.455 25.7827 110.596 25.3849C110.857 24.5084 112.71 19.3054 112.71 19.3054L106.782 19.3024L103.419 29.1025C105.58 29.9628 109.134 29.9208 110.532 29.9208C111.931 29.9225 113.951 29.8592 115.315 29.2552C116.659 28.6887 118.411 27.6033 119.512 24.4684C120.64 21.3557 121.195 20.0798 121.083 18.971C120.948 17.9271 120.23 17.2161 119.529 16.6724C118.875 16.1075 116.584 14.0383 116.584 14.0383C116.584 14.0383 115.906 13.5356 115.771 12.5545C115.698 11.5303 116.765 9.2306 116.999 8.58291C117.259 7.87247 118.011 7.78941 118.411 7.95707C119.244 8.39577 119.035 8.89723 118.705 9.87955C118.33 10.9032 117.254 13.7245 117.254 13.7245L123.095 13.7269L126.262 4.65628C124.875 4.17431 122.123 3.98549 120.174 3.98549C118.286 3.98438 116.045 3.96476 114.744 4.61245C113.399 5.23719 111.846 6.38689 110.614 9.39701C109.336 12.342 109.074 13.3036 109.191 14.1401C109.411 15.3318 110.85 16.7748 111.812 17.5491C113.034 18.5313 114.527 19.4302 114.445 20.3283C114.175 22.7955 112.677 25.679 112.677 25.679ZM30.358 28.4143L26.7218 28.4132L35.1697 5.66309L41.5652 5.6649L39.6851 19.3081L44.5042 5.66615L48.1405 5.66671L39.712 28.3979L33.4356 28.3961L35.1502 15.016L30.358 28.4143ZM41.4637 28.3972L47.081 28.4006L55.5711 5.64862L49.7342 5.66601L41.4637 28.3972ZM61.1349 14.797L66.3111 14.7981L69.4704 6.25554C68.2477 5.46496 66.3094 5.42697 64.1116 5.38899C61.8755 5.34933 60.1969 5.33083 58.6415 6.14033C56.9258 7.08119 56.2867 8.13308 56.0123 8.86829C55.7191 9.60183 50.8298 22.7742 50.5987 23.3942C50.3465 24.0707 49.4645 26.272 50.2427 27.4038C50.7676 28.1372 53.3568 28.5898 54.1152 28.6446C55.5336 28.7206 57.4108 28.7402 58.8566 28.3832C59.7599 28.1575 62.0593 27.0867 62.9249 24.6775C63.37 23.417 65.2031 18.4293 65.2031 18.4293H59.8272C59.8272 18.4293 57.8022 23.9786 57.5095 24.6948C57.3611 25.1278 56.8146 25.4848 56.3358 25.3345C55.7213 25.1474 55.5131 24.6015 55.6791 24.1674C55.9118 23.6043 60.7378 10.4303 60.9923 9.73303C61.1618 9.2633 61.5131 8.66278 62.3468 8.90683C63.0805 9.16994 62.9881 9.84935 62.841 10.2609C62.6737 10.7322 61.1349 14.797 61.1349 14.797ZM95.6528 5.67812L94.4106 8.99115L89.7343 8.95316L87.5364 15.218L91.2343 15.2186L89.9101 18.5685L86.3131 18.585L84.0719 25.0221L88.6697 25.0025L87.4235 28.4092L77.2124 28.4075L85.4219 5.67631L95.6528 5.67812ZM102.304 12.1376C102.156 12.6679 101.754 13.6829 101.548 14.0607C101.34 14.4931 101.05 15.0021 100.21 15.021C99.5477 15.0186 99.2493 15.0019 99.2493 15.0019L101.53 8.78369C101.53 8.78369 102.03 8.76407 102.11 8.78369C102.67 8.76352 102.961 9.18038 103.012 9.74528C103.041 10.1788 102.706 11.0834 102.513 11.7052C102.43 11.8425 102.36 11.9873 102.304 12.1376ZM108.337 6.35683C108.004 5.95959 107.751 5.63944 105.571 5.62051C104.149 5.6194 97.3476 5.61759 97.3476 5.61759L89.149 28.3958H94.6708C94.6708 28.3958 97.4449 20.3707 98.1228 18.4702C98.1228 18.4702 98.4242 18.3166 98.6826 18.3902C99.1224 18.5055 99.3359 18.8267 99.3251 19.4289C99.2937 20.0318 99.1671 20.3145 98.872 21.1435C98.532 22.0084 97.474 25.1929 97.2618 25.8325C97.0507 26.4372 96.7403 26.9829 96.7249 27.7751C96.7272 28.5283 97.0329 28.4142 97.0329 28.4142L102.577 28.3971C102.577 28.3971 102.404 27.9825 102.415 27.268C102.43 26.4959 103.125 24.6668 103.507 23.6113C103.928 22.5214 104.563 20.6179 104.68 19.7882C104.816 19.0346 104.862 18.6378 104.688 18.2992C104.497 17.8468 104.189 17.2268 103.456 16.9054C103.456 16.9054 104.341 16.6048 104.765 16.3204C105.15 16.1131 106.212 15.0595 106.441 14.5701C106.982 13.4767 107.421 12.48 107.693 11.8012C108.093 10.8592 108.753 8.78592 108.823 8.22171C108.874 7.63566 108.711 6.75129 108.337 6.35683ZM20.2017 25.6541C20.0397 25.9911 19.4509 26.6375 18.7228 26.4096C18.3239 26.2812 17.9811 25.759 18.1202 25.3618C18.381 24.4842 20.2343 19.2818 20.2343 19.2818L14.3088 19.28L10.9458 29.0818C13.1055 29.9378 16.6584 29.897 18.0553 29.8976C19.4555 29.897 21.4765 29.8366 22.8418 29.2297C24.1833 28.6644 25.9372 27.5801 27.0385 24.4461C28.1653 21.3319 28.7216 20.0553 28.6098 18.9482C28.4747 17.902 27.7545 17.1916 27.0539 16.6486C26.3994 16.0826 24.1097 14.0145 24.1097 14.0145C24.1097 14.0145 23.4295 13.5112 23.2938 12.5313C23.222 11.5064 24.2895 9.20681 24.5229 8.55968C24.7825 7.84798 25.5379 7.7645 25.9328 7.93328C26.7704 8.37198 26.5615 8.87288 26.2295 9.8552C25.8546 10.8788 24.7796 13.7013 24.7796 13.7013L30.6189 13.7024L33.7874 4.63179C32.3992 4.15163 29.6507 3.96226 27.6983 3.96045C25.8107 3.96101 23.5683 3.93972 22.2692 4.58685C20.9255 5.21381 19.3724 6.3631 18.1383 9.37266C16.8608 12.3195 16.5995 13.2798 16.7153 14.117C16.9379 15.3094 18.3746 16.7494 19.3365 17.5244C20.5604 18.5084 22.0524 19.4065 21.9691 20.3048C21.7007 22.7713 20.2017 25.6541 20.2017 25.6541Z" fill="#234AA3"/>
<path d="M72.5742 15.1137L76.069 5.7473L70.4803 5.7352L62.656 28.3891L68.2248 28.4019L71.5821 18.3018L72.1527 28.4092L77.2125 28.4076C77.2125 28.4076 77.381 17.3074 75.2013 17.1094L85.0911 5.73283L80.1978 5.73047L72.5742 15.1137Z" fill="#234AA3"/>
</g>
<defs>
<clipPath id="clip0_54_135">
<rect width="139" height="34" fill="white" transform="translate(0 0.000244141)"/>
</clipPath>
</defs>
</svg>
