<svg width="108" height="63" viewBox="0 0 108 63" fill="none" xmlns="http://www.w3.org/2000/svg">
<path fill-rule="evenodd" clip-rule="evenodd" d="M41.265 12.0318C42.6551 6.34034 47.8159 2.11572 53.936 2.11572C60.0544 2.11572 65.18 6.36443 66.5723 12.0537C72.7277 13.2364 78.4707 15.2748 83.6176 17.9222L103.236 17.9311V53.8112L83.8137 53.902C75.2166 58.367 64.92 60.9645 53.8526 60.9645C42.7346 60.9645 32.3944 58.3423 23.7732 53.8404H4.76465V17.9317L23.9312 17.9183C29.1453 15.216 35.0099 13.1995 41.265 12.0318Z" fill="#E7C63D"/>
<path fill-rule="evenodd" clip-rule="evenodd" d="M44.1084 14.6372C44.3684 9.44211 48.6759 5.30322 53.936 5.30322C59.1786 5.30322 63.4497 9.41802 63.7355 14.5895C70.5694 15.6888 76.9209 17.9401 82.535 21.0856H100.081V51.0551H82.4745C74.441 55.3884 64.2353 57.8946 54.0469 57.8946C43.8434 57.8946 34.0534 55.3873 26.0137 51.0439L7.91846 51.0506V21.1691H25.4097C30.9852 18.0225 37.3182 15.7622 44.1084 14.6372Z" fill="white"/>
<path fill-rule="evenodd" clip-rule="evenodd" d="M44.1618 16.4269C44.8045 21.2319 48.9546 24.9579 53.9361 24.9579C58.9351 24.9579 63.0779 21.1955 63.6976 16.3652C70.5012 17.418 76.8505 19.5432 82.4377 22.5677L98.405 22.566V49.1564H82.4377C74.3034 53.5587 64.5851 56.1186 54.1451 56.1186C43.7959 56.1186 34.1505 53.6063 26.0604 49.2735L9.59448 49.2769V22.6478H25.7057C31.2056 19.6486 37.4697 17.5138 44.1618 16.4269Z" fill="white"/>
<path fill-rule="evenodd" clip-rule="evenodd" d="M42.729 18.6192C36.8835 19.7762 31.4531 21.8118 26.5926 24.5634H11.7627V46.9533L26.5926 46.965C34.458 51.4166 43.8748 54.0068 53.9943 54.0068C64.0527 54.0068 73.4169 51.4474 81.2531 47.0446H96.3351V24.4367L81.2542 24.4603C76.3898 21.7277 70.928 19.7336 65.0875 18.5996C63.6537 23.4209 59.1781 26.9575 53.8912 26.9575C48.6059 26.957 44.1639 23.4383 42.729 18.6192Z" fill="#C73B42"/>
<path fill-rule="evenodd" clip-rule="evenodd" d="M53.4452 6.52857C53.09 6.55211 52.7589 6.63447 52.6877 6.5874C52.6166 6.54034 52.5577 6.42212 52.5577 6.42212C52.5577 6.42212 51.4366 6.71179 51.1856 6.81208C51.008 6.88324 51.162 6.57564 49.4464 7.49788C49.3209 7.54999 49.2688 7.50965 49.0912 7.73433C48.9141 7.959 48.3819 8.04193 47.8726 8.65657C47.7577 8.7098 47.7308 8.69187 47.7308 8.69187C47.7308 8.69187 47.5538 8.96361 47.4591 9.07007C47.3644 9.17652 47.0215 9.48412 46.678 10.0041C46.5609 10.0383 46.4858 10.0035 46.4057 10.2288C46.2757 10.5952 45.6958 11.4222 45.6247 11.7892C45.4717 11.848 45.5182 11.8362 45.4947 11.8833C45.4711 11.9304 45.4241 12.4268 45.4117 12.5215C45.4 12.6162 45.0571 13.7978 45.1876 14.413C45.1462 14.5402 45.0688 14.5783 45.0688 14.5783C45.0688 14.5783 45.2935 16.3163 45.27 16.8122C45.3921 17.0761 46.0746 18.7273 46.0746 18.8808C46.0746 19.0343 46.4416 19.2349 47.1391 20.5118C47.2758 20.5623 47.4944 20.7012 47.4944 20.7012L47.5532 20.9018C47.5532 20.9018 48.4284 21.8005 48.7124 21.8946C48.9965 21.9893 50.0667 22.7917 50.3334 22.8875C50.7121 23.0231 50.8892 22.9581 50.9962 23.0651C51.1021 23.171 51.1379 23.2304 51.0909 23.301C51.0433 23.3721 50.8875 23.4702 50.9374 23.5374C51.0315 23.6674 52.1084 24.1521 52.2148 24.1285C52.3213 24.105 53.457 23.1564 53.8593 23.171C54.3232 23.1878 55.4091 24.1756 55.5514 24.1521C55.6937 24.1285 56.8176 23.6556 56.8294 23.5727C56.8406 23.4898 56.6042 23.3245 56.5812 23.2657C56.5571 23.2068 56.7224 23.2421 56.7465 23.0292C57.3976 22.9228 58.3792 22.2605 58.5092 22.2605C58.638 22.2605 58.7927 22.284 58.7804 22.0476C59.2661 21.8229 59.562 21.48 59.739 21.3265C59.9161 21.173 60.0825 21.066 60.2237 20.9601C60.3901 20.913 60.5795 20.8536 60.4612 20.7119C60.8036 20.4048 61.3246 19.4949 61.4546 19.3055C61.5835 19.1167 61.9275 18.9626 61.7381 18.6791C61.9152 18.4074 62.2895 17.5776 62.3304 17.2963C62.3421 17.2139 62.685 16.6934 62.685 16.6228C62.685 16.5517 62.5668 16.5281 62.5668 16.5281C62.5668 16.5281 62.7439 15.1095 62.7321 14.9795C62.7792 14.7907 62.9686 14.3766 62.6974 14.3295C62.6733 13.9866 62.5433 13.0173 62.4368 12.8397C62.3898 12.5562 62.378 12.0357 62.2127 12.0716C62.0586 11.6104 61.5252 10.6176 61.2894 10.3576C61.1952 10.0618 61.0652 9.79004 60.9941 9.84943C60.6865 9.28186 60.2018 8.90366 60.0477 8.77367C59.8948 8.64368 59.7284 8.28902 59.5631 8.36018C59.3496 8.20665 59.074 7.92034 58.8526 7.81613C58.4509 7.62731 58.498 7.36677 58.1074 7.43793C57.7998 7.11856 56.5218 6.83505 56.3806 6.75213C56.2383 6.7286 56.2383 6.77566 56.1671 6.74036C56.096 6.70507 55.1737 6.43332 55.0191 6.53978C54.7115 6.62214 54.0969 6.44509 54.0851 6.50448C54.1316 6.78855 53.61 7.01715 53.4452 6.52857Z" fill="black"/>
<path fill-rule="evenodd" clip-rule="evenodd" d="M58.4851 12.3091C58.5003 12.257 58.8465 12.2962 59.0421 12.1819C59.2914 12.0385 59.4096 11.6956 59.5026 11.6827C59.5749 11.6721 59.7346 11.9629 59.8242 12.2592C59.9817 12.5629 60.2848 13.0621 60.319 13.1955C60.3778 13.4319 60.3419 14.0466 60.366 14.106C60.3901 14.1654 60.5084 14.3066 60.2831 14.4489C60.2949 14.65 60.3072 15.6782 60.1061 15.6782C60.0002 15.6782 59.8606 15.4389 59.5962 15.2792C59.362 15.1392 59.0096 15.0792 58.7927 15.04C58.6622 14.933 58.1652 13.3849 58.4851 12.3091ZM48.3937 18.5032C48.4693 18.5984 48.5808 18.1474 48.9024 17.9361C49.4112 17.6022 49.9434 17.2655 49.9434 16.6592C49.9434 16.1157 49.9199 13.3731 49.9199 13.1367C49.9199 12.3444 48.8201 12.7142 48.8789 11.4104C48.9097 10.714 50.1093 10.0982 50.618 11.3398C50.9374 11.4339 51.4686 11.4054 51.6114 11.3045C51.6367 10.9313 52.0849 10.6422 52.5578 10.5716C52.5578 10.1934 51.8344 10.1822 51.6232 9.63763C51.3789 9.00954 51.7924 8.92102 51.5879 8.68009C51.5464 8.6319 49.9076 9.3065 49.4941 10.0158C49.1983 10.1693 48.6654 10.9616 48.4766 11.0557C48.4581 11.1303 48.4716 11.3818 48.2396 11.5337C48.0222 12.0671 47.7112 12.6884 47.5538 12.7938C47.5611 12.87 47.5841 13.0621 47.5079 13.2202C47.3437 13.5586 47.3134 14.0701 47.2815 14.3189C47.4944 14.4842 47.3286 14.7918 47.3521 14.9571C47.3756 15.1229 47.7661 15.9975 47.6003 16.7069C47.932 17.2503 48.2161 18.2785 48.3937 18.5032ZM52.2978 14.8741C52.2384 14.8035 52.2625 13.1955 52.286 13.0537C52.3096 12.912 52.5102 12.8532 52.5695 12.8649C52.6284 12.8767 52.6979 14.3772 52.5931 14.6618C52.5102 14.8859 52.3566 14.9453 52.2978 14.8741ZM52.546 16.8245C52.546 16.8245 53.5041 16.8128 53.717 16.8128C53.9299 16.8128 53.7994 17.0257 53.7994 17.0257C53.7994 17.0257 53.6694 17.6409 52.3325 17.4156C52.1067 17.3775 52.2384 16.8957 52.546 16.8245ZM53.2856 9.00506H54.3927C54.3927 9.00506 54.4869 9.02859 54.5407 8.9339C54.5933 8.83921 54.7177 8.5854 54.9183 8.52041C55.1194 8.45541 55.0432 8.33719 54.9665 8.29573C54.8886 8.25427 54.8057 8.12148 54.5793 8.11531C54.1294 8.10355 53.9905 7.91697 53.7893 7.9293C53.5882 7.94106 53.6627 7.95731 53.452 7.99093C53.3663 8.00438 53.3416 8.15509 53.2694 8.15229C52.7348 8.13492 52.4838 8.28172 52.4995 8.33103C52.523 8.40218 52.7315 8.49407 52.8665 8.57083C53.0637 8.68289 53.1259 9.00506 53.2856 9.00506ZM54.7586 12.5103C54.7586 12.5103 54.7676 11.4317 54.7816 11.3045C54.7967 11.1773 54.7967 10.7369 55.4237 10.3587C56.0507 9.98053 56.2092 9.76762 56.2126 9.24767C56.2159 8.86387 56.0417 8.81008 56.0383 8.63246C56.0372 8.5854 56.0972 8.5882 56.1302 8.59717C56.1958 8.6151 56.4838 8.93558 57.0525 9.05829C57.466 9.29473 57.4553 9.41295 57.6918 9.54294C57.9282 9.67293 58.484 10.1576 58.4722 10.2999C58.461 10.4417 57.727 10.2999 57.2542 10.9857C56.7802 11.6709 56.8166 12.396 56.6031 12.392C56.379 12.3881 55.8108 12.0256 54.9233 12.782C54.7104 12.9635 54.7642 12.6105 54.7586 12.5103ZM56.0008 15.0988V14.6315C56.0008 14.6315 56.0193 14.2472 56.3381 14.2713C56.5426 14.2864 56.3252 14.9033 56.2243 15.1111C56.2092 15.1453 56.1414 15.1464 56.1246 15.1459C56.0294 15.1408 56.0535 15.1638 56.0008 15.0988ZM54.8527 15.17C54.7401 15.1027 54.7586 14.4489 54.7816 14.236C54.8057 14.0231 55.2774 12.842 56.119 12.8644C56.6401 12.8784 56.8765 13.6331 56.1902 13.6449C56.0467 13.6471 55.9515 13.5406 55.8663 13.5849C55.6915 13.6774 55.6013 13.9922 55.5094 14.2718C55.3738 14.6853 55.4209 15.1464 55.3497 15.17C55.2786 15.1935 55.1133 15.3235 54.8527 15.17Z" fill="white"/>
<path fill-rule="evenodd" clip-rule="evenodd" d="M54.1903 15.0512C54.2374 15.3347 54.1903 15.5835 54.2615 15.6776C54.3007 15.7308 55.3967 15.6776 56.0825 15.6776C56.4007 15.6776 56.589 15.6031 56.6831 15.4316C57.0859 14.6993 56.952 11.9959 57.9404 11.1857C59.0218 10.3005 59.4067 12.1903 58.1298 11.7057C57.3846 13.195 58.1494 15.556 58.5556 15.6894C59.8807 15.5712 59.846 16.6352 59.3372 16.7175C58.7584 16.8111 58.6738 16.3869 58.5679 16.2093C58.5679 16.2093 52.3212 16.2329 52.1671 16.2329C52.013 16.2329 52.1682 16.9781 51.4214 16.7881C51.009 16.6833 51.2796 15.937 51.7643 15.8194C51.9598 15.7717 53.137 15.5829 53.137 14.7907C53.137 14.4371 53.1488 10.6535 53.1488 10.6535C53.1488 10.6535 53.1723 10.2047 52.7823 9.99175C52.3918 9.77884 51.8085 9.49029 52.0842 9.04597C52.2971 8.70363 52.8417 8.94008 52.8294 9.25889C52.8204 9.5071 53.0423 9.43594 53.0423 9.43594C53.0423 9.43594 53.3208 9.4421 53.3678 9.48917C53.4149 9.53623 53.5751 9.97942 53.9533 9.95589C54.3321 9.93236 54.4027 9.64885 54.4391 9.55416C54.4739 9.45947 54.5713 9.4393 54.7053 9.4477C55.1137 9.47124 54.8112 8.98098 55.3322 8.94568C55.4381 8.9384 55.7284 8.96977 55.7166 9.34741C55.6936 10.157 54.1758 9.5973 54.2206 11.2384V12.8459C54.22 12.847 54.1903 14.7912 54.1903 15.0512ZM47.1037 11.2687C46.9407 11.2731 46.9183 10.8126 47.0769 10.4052C47.2287 10.0147 47.5553 9.67855 47.6478 9.67238C47.8372 9.66062 47.6949 10.1929 47.7778 10.2405C47.8607 10.2876 48.7006 9.8147 48.7953 9.90939C48.89 10.0041 48.0266 11.2457 47.1037 11.2687Z" fill="white"/>
<path fill-rule="evenodd" clip-rule="evenodd" d="M47.9913 9.95652C47.7431 9.18836 48.7382 8.42468 49.0082 8.45549C49.2211 8.47902 48.8665 9.0113 48.9141 9.07013C48.9612 9.12897 49.7069 8.82193 49.8134 8.96368C49.9193 9.10543 49.3282 9.51949 49.1859 9.54302C49.1181 9.55423 48.8362 9.63435 48.5701 9.74193C48.2793 9.85959 48.0059 10.0025 47.9913 9.95652Z" fill="white"/>
<path fill-rule="evenodd" clip-rule="evenodd" d="M49.2805 8.77477C49.1152 8.34894 50.1456 7.42334 50.582 7.52195C50.7568 7.56061 50.2862 8.03014 50.3338 8.07776C50.3809 8.12483 51.1266 7.97131 51.1737 8.20775C51.2213 8.44363 50.3809 8.70417 50.2627 8.73947C50.1444 8.77477 49.6357 8.73947 49.5528 8.77477C49.4699 8.81006 49.3074 8.8448 49.2805 8.77477Z" fill="white"/>
<path fill-rule="evenodd" clip-rule="evenodd" d="M50.724 7.80552C50.7167 7.68674 51.1268 7.3444 51.1974 7.3091C51.2686 7.2738 51.9555 6.98917 52.002 7.09619C52.0659 7.24187 51.7706 7.50856 51.7891 7.58084C51.8244 7.72316 52.3331 7.652 52.369 7.80552C52.3931 7.91198 51.9667 8.07726 51.7062 8.05373C51.4456 8.0302 50.7357 7.99434 50.724 7.80552Z" fill="white"/>
<path fill-rule="evenodd" clip-rule="evenodd" d="M52.0959 7.48611C52.0864 7.41607 52.2853 6.98969 52.9476 7.04852C52.9835 7.09559 52.9711 7.17851 52.9711 7.17851C53.1252 7.17851 53.4093 7.21381 53.421 7.28496C53.4328 7.35612 53.2098 7.45754 53.1846 7.53318C53.0664 7.88784 52.1083 7.58024 52.0959 7.48611ZM46.6779 10.9969C46.7485 10.9902 46.9143 11.1504 46.8785 11.6945C47.0914 11.5763 47.5817 11.1796 47.7425 11.3045C47.8484 11.3869 47.5531 11.7421 47.506 11.8839C47.459 12.0256 47.246 12.6879 46.8197 12.8408C46.6152 12.9159 46.5121 13.1367 46.3938 13.1126C46.2756 13.089 46.0033 12.5338 46.098 12.1786C46.1927 11.8239 46.5479 11.0087 46.6779 10.9969Z" fill="white"/>
<path fill-rule="evenodd" clip-rule="evenodd" d="M46.2282 15.3353C46.1094 15.3286 45.6012 14.7683 45.6365 14.4366C45.6718 14.1061 45.7547 12.9238 45.8847 12.9121C46.0147 12.9003 46.1923 13.3967 46.2753 13.5743C46.417 13.4208 46.6949 12.9877 46.8669 13.125C46.9263 13.172 46.8199 13.9996 46.8081 14.212C46.7963 14.4254 46.4417 15.3471 46.2282 15.3353Z" fill="white"/>
<path fill-rule="evenodd" clip-rule="evenodd" d="M45.6957 15.1817C45.7669 15.175 45.9563 15.087 46.2874 15.844C46.5003 15.7258 46.4936 15.0332 46.8197 14.957C46.9037 14.938 47.1508 15.9975 47.1037 16.1393C47.0567 16.281 47.092 16.6945 46.8908 16.9903C46.7687 17.1713 46.8197 17.4279 46.7014 17.4044C46.5832 17.3809 45.7994 16.9663 45.7669 16.6004C45.7316 16.1981 45.5657 15.1935 45.6957 15.1817Z" fill="white"/>
<path fill-rule="evenodd" clip-rule="evenodd" d="M47.5062 19.1536C47.3874 19.2326 46.8434 18.8925 46.6423 18.6808C46.4411 18.4684 45.9441 17.4162 46.0741 17.3333C46.152 17.2839 46.654 17.6168 46.8193 17.7826C46.914 17.5579 47.0675 17.0497 47.1622 17.0968C47.2569 17.1439 47.6592 18.0779 47.671 18.3143C47.6827 18.5508 47.5774 19.106 47.5062 19.1536Z" fill="white"/>
<path fill-rule="evenodd" clip-rule="evenodd" d="M47.7543 19.4961C47.7308 19.3302 47.719 18.6332 47.8607 18.6685C48.0025 18.7038 48.0854 19.1061 48.2154 19.2596C48.3454 19.4132 49.039 20.2654 48.8424 20.5595C48.7241 20.7371 48.1908 20.6262 47.9196 20.4536C47.6243 20.2648 46.9049 19.3924 47.0326 19.2479C47.1155 19.1537 47.7778 19.6614 47.7543 19.4961Z" fill="white"/>
<path fill-rule="evenodd" clip-rule="evenodd" d="M49.21 20.891C49.1388 20.7258 48.9853 20.3352 49.0682 20.2411C49.1511 20.1464 50.2655 20.8003 50.5233 21.4822C50.5692 21.6032 49.7187 21.7186 49.5299 21.7186C49.3411 21.7186 48.2698 21.0675 48.2519 20.8552C48.2395 20.7134 49.0083 20.867 49.21 20.891Z" fill="white"/>
<path fill-rule="evenodd" clip-rule="evenodd" d="M50.9373 21.6594C50.8073 21.4941 50.3456 21.0559 50.405 20.9024C50.4639 20.7489 51.3396 21.2094 51.4578 21.3041C51.576 21.3988 51.7537 21.6112 51.813 21.6823C51.8719 21.7529 52.0142 21.8476 51.9901 21.9541C51.9666 22.06 51.789 22.1547 51.6943 22.214C51.5996 22.2729 51.3161 22.604 50.9608 22.4976C50.6056 22.3911 49.991 22.0841 49.991 21.9417C49.9904 21.8011 50.4162 21.7187 50.9373 21.6594Z" fill="white"/>
<path fill-rule="evenodd" clip-rule="evenodd" d="M51.8483 21.3399C51.8612 21.3225 51.9984 21.3931 52.1973 21.4447C52.6192 21.5539 53.2821 21.7444 53.3622 22.0016C53.4804 22.3798 53.4216 22.498 53.4216 22.498C53.4216 22.498 53.4922 22.628 53.4804 22.7109C53.4748 22.753 53.133 22.9227 52.7873 23.1244C52.4551 23.3177 52.1195 23.5441 52.073 23.5379C51.9783 23.5262 51.8247 23.5144 51.8365 23.4197C51.8483 23.325 52.5229 22.9586 52.5699 22.8521C52.617 22.7457 51.623 22.6869 51.6354 22.5922C51.6707 22.3322 52.3806 22.0957 52.3806 22.0011C52.38 21.9075 51.7295 21.494 51.8483 21.3399ZM53.9062 21.4346C53.5869 21.4111 53.1375 21.1152 52.9364 21.0799C52.7352 21.0446 51.6466 20.737 51.5401 20.607C51.4454 20.6423 51.3748 20.6659 51.3748 20.6659C51.3748 20.6659 50.2767 20.1218 50.0262 20.1106C49.8856 20.1033 49.7539 19.9571 49.7539 19.8977C49.7539 19.8383 50.322 19.4719 50.3573 19.2354C50.5703 19.2472 55.93 19.2354 55.93 19.2354C56.0723 19.6966 57.045 20.2597 57.7521 19.5195C57.8707 19.3613 57.9479 19.1759 57.9766 18.9803C58.0053 18.7846 57.9846 18.5849 57.9163 18.3993C57.8481 18.2137 57.7346 18.0481 57.586 17.9176C57.4374 17.7871 57.2586 17.6958 57.0657 17.6521C56.6595 17.5181 56.4617 17.7227 56.3312 16.801C56.8455 16.7786 58.2603 16.7539 58.2603 16.7539C58.8284 17.5579 59.7148 17.1915 59.8571 17.1086C59.7512 17.4038 59.5899 17.8515 59.5495 18.0303C59.4683 18.3905 58.6542 19.152 58.615 19.2948C58.5802 19.4243 57.5975 19.9806 57.5504 20.0748C57.5033 20.1695 57.3851 20.0865 57.3851 20.0865C57.3851 20.0865 56.3312 20.5353 56.2371 20.6306C56.0477 20.4412 54.6632 21.0205 54.1785 21.4228C54.0245 21.4385 54.2256 21.4581 53.9062 21.4346Z" fill="white"/>
<path fill-rule="evenodd" clip-rule="evenodd" d="M51.5521 15.4418C51.4372 15.5942 50.8136 15.5483 50.8069 16.4229C50.8007 17.2751 51.4697 17.1916 51.588 17.404C51.635 17.6875 51.588 17.8769 51.6586 17.9716C51.6989 18.0248 52.7943 18.0069 53.4801 17.9716C54.1664 17.9363 54.5693 16.9905 54.604 16.8017C54.776 16.8017 55.4204 16.6835 55.5386 16.837C55.6568 16.9905 55.9017 17.8147 56.2126 18.1256C57.7512 18.031 57.5377 19.1891 56.9578 19.272C56.379 19.3549 56.3426 18.8232 56.2367 18.6456H50.0147C49.9317 19.095 49.5502 19.4535 49.186 19.2132C48.7478 18.9224 49.1983 18.3145 49.5412 18.2203C49.7351 18.1671 50.4164 17.6416 50.4405 17.204C50.4595 16.8504 50.4405 12.9009 50.4405 12.9009C50.4405 12.9009 50.464 12.5109 50.0735 12.2986C49.6835 12.0857 49.2655 11.7971 49.5412 11.3528C49.7536 11.0105 50.2629 11.3175 50.2511 11.6369C50.2416 11.8851 50.464 11.8139 50.464 11.8139C50.464 11.8139 50.7419 11.8195 50.7895 11.8672C50.8366 11.9142 50.9257 12.3339 51.3039 12.3104C51.6826 12.2868 51.7297 11.9798 51.765 11.8851C51.8003 11.791 51.9073 11.8268 52.0317 11.7786C52.2149 11.708 52.1141 11.2296 52.5405 11.2055C52.6464 11.1999 52.9248 11.2295 52.9248 11.6077C52.9248 12.4174 51.644 12.3776 51.6177 13.0023V15.2009C51.6171 15.1992 51.6406 15.3236 51.5521 15.4418ZM60.6563 11.2408C60.8194 11.2452 60.8412 10.7841 60.6826 10.3768C60.5314 9.98682 60.2042 9.65064 60.1123 9.64448C59.9229 9.63271 60.0652 10.1644 59.9823 10.2121C59.8994 10.2597 59.0589 9.78623 58.9648 9.88092C58.869 9.97617 59.7335 11.2178 60.6563 11.2408Z" fill="white"/>
<path fill-rule="evenodd" clip-rule="evenodd" d="M59.7687 9.92897C60.0169 9.16081 59.0224 8.39713 58.7512 8.42738C58.5389 8.45092 58.8935 8.9832 58.8465 9.04203C58.7994 9.10086 58.0542 8.79382 57.9472 8.93557C57.8413 9.07733 58.433 9.49138 58.5742 9.51492C58.6419 9.52612 58.9243 9.60568 59.1905 9.71326C59.4807 9.83148 59.7541 9.97436 59.7687 9.92897Z" fill="white"/>
<path fill-rule="evenodd" clip-rule="evenodd" d="M58.4794 8.74612C58.6447 8.32086 57.6137 7.39525 57.1784 7.4933C57.0036 7.53197 57.4736 8.00205 57.4266 8.04912C57.3784 8.09618 56.6332 7.94266 56.5861 8.1791C56.5391 8.41555 57.3784 8.67553 57.4977 8.71082C57.616 8.74612 58.1236 8.71082 58.2071 8.74612C58.29 8.78198 58.4519 8.81672 58.4794 8.74612Z" fill="white"/>
<path fill-rule="evenodd" clip-rule="evenodd" d="M57.0361 7.77744C57.044 7.65866 56.6333 7.31632 56.5621 7.28102C56.4921 7.24573 55.8046 6.9611 55.7575 7.06811C55.6942 7.21379 55.9895 7.48049 55.971 7.55277C55.9352 7.69452 55.4259 7.62336 55.3911 7.77744C55.367 7.8839 55.794 8.04919 56.0534 8.02566C56.3139 8.00212 57.0238 7.96626 57.0361 7.77744Z" fill="white"/>
<path fill-rule="evenodd" clip-rule="evenodd" d="M55.6639 7.45804C55.674 7.388 55.4745 6.96162 54.8117 7.02045C54.777 7.06751 54.7887 7.15044 54.7887 7.15044C54.6347 7.15044 54.3512 7.18573 54.3388 7.25633C54.3271 7.32749 54.5501 7.42946 54.5753 7.50454C54.6929 7.85977 55.6516 7.55273 55.6639 7.45804ZM61.082 10.9688C61.0108 10.9621 60.8455 11.1224 60.8819 11.6664C60.6685 11.5482 60.1782 11.1515 60.0174 11.2759C59.9115 11.3588 60.2068 11.7135 60.255 11.8552C60.302 11.997 60.5144 12.6592 60.9402 12.8122C61.1458 12.8867 61.2478 13.108 61.3672 13.0845C61.4854 13.061 61.7566 12.5052 61.6624 12.1505C61.5666 11.7964 61.212 10.9806 61.082 10.9688Z" fill="white"/>
<path fill-rule="evenodd" clip-rule="evenodd" d="M61.5314 15.3073C61.6508 15.3006 62.1584 14.7398 62.1236 14.4086C62.0878 14.0775 62.0043 12.8958 61.8743 12.8835C61.7454 12.8717 61.5667 13.3682 61.4849 13.5458C61.3426 13.3923 61.0658 12.9591 60.8927 13.0964C60.8338 13.1435 60.9397 13.971 60.9515 14.1839C60.9638 14.3969 61.3191 15.3191 61.5314 15.3073Z" fill="white"/>
<path fill-rule="evenodd" clip-rule="evenodd" d="M62.0638 15.1538C61.9937 15.1471 61.8043 15.0591 61.4727 15.8161C61.2592 15.6979 61.267 15.0054 60.9398 14.9297C60.8558 14.9101 60.6092 15.9696 60.6563 16.1114C60.7034 16.2531 60.6681 16.6672 60.8698 16.9625C60.9914 17.144 60.9398 17.4 61.058 17.3765C61.1774 17.353 61.9607 16.9384 61.9937 16.5725C62.0285 16.1702 62.1938 15.1656 62.0638 15.1538Z" fill="white"/>
<path fill-rule="evenodd" clip-rule="evenodd" d="M60.2544 19.1251C60.3726 19.2041 60.9167 18.8645 61.1178 18.6522C61.3189 18.4398 61.8148 17.3876 61.6848 17.3047C61.6081 17.2554 61.106 17.5882 60.9396 17.754C60.8455 17.5294 60.6925 17.0212 60.5973 17.0682C60.5032 17.1153 60.1003 18.0493 60.0885 18.2858C60.0768 18.5222 60.1832 19.078 60.2544 19.1251Z" fill="white"/>
<path fill-rule="evenodd" clip-rule="evenodd" d="M60.0051 19.468C60.0292 19.3027 60.041 18.6052 59.8992 18.6405C59.7569 18.6758 59.6751 19.078 59.5446 19.2316C59.4146 19.3851 58.7204 20.2373 58.9176 20.532C59.0358 20.7091 59.5687 20.5987 59.8398 20.4255C60.1351 20.2362 60.8545 19.3644 60.7273 19.2198C60.6439 19.1251 59.9822 19.6333 60.0051 19.468Z" fill="white"/>
<path fill-rule="evenodd" clip-rule="evenodd" d="M58.5507 20.8632C58.6208 20.6974 58.7748 20.3074 58.6919 20.2133C58.6101 20.1186 57.4946 20.7725 57.2374 21.4543C57.1914 21.5754 58.042 21.6908 58.2308 21.6908C58.4196 21.6908 59.4903 21.0397 59.5077 20.8279C59.52 20.6856 58.7507 20.8391 58.5507 20.8632Z" fill="white"/>
<path fill-rule="evenodd" clip-rule="evenodd" d="M56.8226 21.6312C56.9526 21.4659 57.4148 21.0283 57.3554 20.8748C57.296 20.7213 56.4209 21.1819 56.3026 21.2765C56.1833 21.3707 56.0063 21.5836 55.9469 21.6547C55.888 21.7253 55.7457 21.82 55.7698 21.9265C55.7939 22.0329 55.971 22.1276 56.0651 22.1865C56.1603 22.2453 56.4438 22.5764 56.7996 22.47C57.1543 22.3641 57.7689 22.0565 57.7689 21.9142C57.7689 21.773 57.3437 21.69 56.8226 21.6312Z" fill="white"/>
<path fill-rule="evenodd" clip-rule="evenodd" d="M55.9122 21.3119C55.8993 21.2951 55.762 21.3651 55.5631 21.4172C55.1406 21.5265 54.4784 21.7175 54.3977 21.9741C54.2795 22.3523 54.3383 22.4706 54.3383 22.4706C54.3383 22.4706 54.2671 22.6005 54.2795 22.6829C54.2856 22.7255 54.6269 22.8953 54.9737 23.097C55.3054 23.2908 55.641 23.5166 55.6869 23.5105C55.7822 23.4987 55.9351 23.4869 55.9245 23.3928C55.9127 23.2981 55.237 22.9317 55.19 22.8252C55.1429 22.7188 56.1374 22.6594 56.1245 22.5652C56.0898 22.3053 55.3793 22.0688 55.3793 21.9741C55.3793 21.8794 56.0304 21.466 55.9122 21.3119ZM53.8531 22.5815C53.6968 22.5451 53.5449 22.0767 53.8901 22.0767C54.2347 22.0761 54.0626 22.6308 53.8531 22.5815Z" fill="white"/>
<path fill-rule="evenodd" clip-rule="evenodd" d="M35.3646 29.7948C36.4577 30.5865 35.9036 32.4388 34.8754 32.7705C33.8708 33.0949 31.4436 33.1532 31.2061 31.4185C31.1097 30.7131 31.4716 29.8973 32.1955 29.6094C33.2265 29.1992 34.4345 29.1219 35.3646 29.7948ZM43.249 36.7234C42.9678 37.9208 42.8731 39.0727 43.5471 40.1199C44.0233 40.8595 45.1876 40.8606 45.6045 40.1121C45.9486 39.4899 46.1186 38.7864 46.0964 38.0757C46.0742 37.365 45.8607 36.6735 45.4784 36.074C45.2851 35.7709 45.0554 35.632 44.5091 35.6191C43.8301 35.6017 43.4373 35.9227 43.249 36.7234ZM24.5767 29.5808C24.5767 29.5808 24.5744 36.6405 24.5767 40.0784C26.0329 40.0807 29.0938 40.0784 29.0938 40.0784V43.2632H19.6074V29.5808H24.5767ZM35.8201 33.6003V43.2357H31.3618V33.6014L35.8201 33.6003ZM42.8753 33.6026L42.8736 34.3203C42.8736 34.3203 43.5331 33.9528 43.9163 33.7555C44.1987 33.6149 44.4922 33.4978 44.7938 33.4053C46.1043 32.9818 48.75 33.7544 47.9045 33.4754C49.1719 33.8922 50.0504 34.3859 50.585 35.9945C51.0041 37.2551 51.2422 40.9508 49.1119 42.6502C48.9539 42.7763 47.7331 43.3276 46.4612 43.2923C44.9137 43.2497 43.0193 42.1829 43.0193 42.1829V46.0478L38.4815 46.0512V33.5992L42.8753 33.6026ZM58.0352 29.3544V33.3196H60.8355V35.3154H58.1629C58.1629 35.3154 57.9758 38.5012 58.3249 39.9266C58.823 41.4332 61.0933 40.6718 61.0933 40.6718V42.4815C61.0933 42.4815 59.8707 43.29 57.2709 43.3506C55.8898 43.3825 54.4751 42.9063 53.7226 41.9369C53.5629 41.7302 53.364 41.3649 53.3511 41.0954C53.2592 39.2274 53.2788 37.2316 53.2547 35.3664C52.6547 35.3305 51.4909 35.3664 51.4909 35.3664L51.4853 33.3997H53.1819V29.3539L58.0352 29.3544ZM70.9359 32.8467C72.4398 33.0535 74.1498 33.5505 74.7039 35.1316C75.1241 36.3323 75.1875 37.5739 75.1449 38.8262C75.0816 40.6852 74.0002 42.5196 72.0274 42.941C70.3398 43.3013 68.7413 43.2923 67.089 43.2374C65.7045 43.1914 64.1822 43.0099 63.2 41.9145C62.1001 40.6886 61.9051 38.964 62.0205 37.3762C62.1298 35.8695 62.4088 34.011 64.0399 33.3953C66.2536 32.5582 68.6001 32.524 70.9359 32.8467ZM81.9945 33.8183C82.7682 33.2328 83.5454 32.7218 84.5421 32.5218C85.3181 32.3666 86.0314 32.4147 86.7911 32.5324C88.1162 32.7375 89.5663 33.5241 89.6246 34.8386C89.7394 37.4299 89.7036 42.7376 89.7036 42.7376H85.1041C85.1041 42.7376 85.159 38.4642 84.9528 36.2175C84.8632 35.6768 84.2883 35.5137 83.8104 35.4331C83.0758 35.307 82.1217 35.5675 82.0455 36.3643C81.841 38.4984 81.9228 42.7628 81.9228 42.7628H76.9445L76.9423 33.0327H81.962C81.9614 33.0322 81.9821 33.7208 81.9945 33.8183ZM69.1733 41.4612C70.0227 41.073 70.0227 40.0202 70.0977 39.1853C70.2104 37.9269 70.1599 36.2864 69.6887 35.4241C69.2158 34.5629 67.8549 34.206 67.1719 35.2554C66.4878 36.3037 66.7388 38.1062 66.7517 39.5703C66.7573 40.1109 66.908 40.6897 67.3041 41.1503C67.7955 41.7235 68.6001 41.7235 69.1733 41.4612Z" fill="black"/>
<path fill-rule="evenodd" clip-rule="evenodd" d="M34.3359 28.8646C35.4291 29.6563 34.8749 31.5087 33.8474 31.8404C32.8422 32.1648 30.415 32.223 30.178 30.4884C30.0816 29.783 30.4436 28.9672 31.1675 28.6792C32.1978 28.269 33.4064 28.1917 34.3359 28.8646ZM42.2204 35.7932C41.9391 36.9917 41.845 38.1437 42.519 39.1909C42.9953 39.9293 44.159 39.9304 44.5764 39.183C44.9205 38.5606 45.0905 37.857 45.0683 37.1461C45.0461 36.4353 44.8326 35.7436 44.4504 35.1439C44.2565 34.8407 44.0268 34.7018 43.481 34.6889C42.802 34.6726 42.4086 34.9926 42.2204 35.7932ZM23.548 28.6512C23.548 28.6512 23.5458 35.7103 23.548 39.1488C25.0042 39.1511 28.0651 39.1488 28.0651 39.1488V42.3335H18.5793V28.6512H23.548ZM34.7914 32.6707V42.3061L30.3332 42.3072V32.6718L34.7914 32.6707ZM41.8472 32.6718L41.845 33.3901C41.845 33.3901 42.5045 33.0231 42.8883 32.8259C43.1705 32.6849 43.464 32.5676 43.7657 32.4752C45.0762 32.0527 47.7225 32.8248 46.8764 32.5463C48.1438 32.9637 49.0224 33.4562 49.5569 35.0648C49.976 36.3255 50.2147 40.0212 48.0833 41.7217C47.9253 41.8478 46.705 42.398 45.4325 42.3632C43.885 42.3207 41.9907 41.2539 41.9907 41.2539V45.1188L37.4528 45.1232V32.6696L41.8472 32.6718ZM57.0077 28.4242V32.3889H59.8069V34.3847H57.1343C57.1343 34.3847 56.9471 37.5705 57.2962 38.9959C57.7943 40.5025 60.0646 39.7411 60.0646 39.7411V41.5508C60.0646 41.5508 58.8421 42.3593 56.2423 42.4198C54.8612 42.4529 53.4464 41.9755 52.694 41.0062C52.5337 40.8006 52.3354 40.4341 52.3219 40.1646C52.2295 38.2966 52.281 36.3137 52.281 34.4356H50.4617L50.4556 32.4696H52.1522V28.4237L57.0077 28.4242ZM69.9079 31.916C71.4128 32.1239 73.1217 32.6197 73.6758 34.2014C74.0961 35.4033 74.1594 36.6449 74.1168 37.896C74.0535 39.7551 72.9721 41.5895 71.0004 42.0108C69.3117 42.3711 67.7132 42.3621 66.0609 42.3072C64.6764 42.2613 63.1541 42.0797 62.1719 40.9844C61.072 39.7595 60.8782 38.035 60.993 36.4471C61.1012 34.9393 61.3813 33.0808 63.0112 32.4651C65.226 31.6286 67.5714 31.5944 69.9079 31.916ZM80.9669 32.8881C81.7396 32.3037 82.5167 31.7916 83.5135 31.5921C84.2895 31.4364 85.0027 31.4851 85.7625 31.6028C87.0876 31.8079 88.5388 32.594 88.597 33.9095C88.7108 36.4998 88.6749 41.8074 88.6749 41.8074H84.0755C84.0755 41.8074 84.1304 37.5341 83.9242 35.2873C83.8345 34.7466 83.2608 34.5847 82.7817 34.5029C82.0483 34.3768 81.093 34.6373 81.0168 35.4341C80.8123 37.5694 80.8941 41.8338 80.8941 41.8338H75.9159L75.9137 32.1026H80.9333C80.9328 32.102 80.9535 32.7906 80.9669 32.8881ZM68.1446 40.5305C68.994 40.1434 68.9952 39.0894 69.0691 38.2552C69.1817 36.9956 69.1313 35.3551 68.6601 34.4939C68.1883 33.6316 66.8263 33.2758 66.1433 34.3241C65.4603 35.3736 65.7101 37.1749 65.723 38.639C65.7286 39.1796 65.8794 39.7584 66.2755 40.2201C66.768 40.7933 67.5714 40.7933 68.1446 40.5305Z" fill="white"/>
</svg>
