<svg width="74" height="75" viewBox="0 0 74 75" fill="none" xmlns="http://www.w3.org/2000/svg">
<g clip-path="url(#clip0_54_21)">
<path d="M74 37.5003C74 58.2088 57.4345 74.9967 37.0002 74.9967C16.5655 74.9967 0.000244141 58.2088 0.000244141 37.5003C0.000244141 16.7917 16.5658 0.00390625 37.0002 0.00390625C57.4345 0.00390625 74 16.7917 74 37.5003Z" fill="white"/>
<path d="M36.691 13.3344C37.9936 14.0913 39.3754 15.0655 40.4269 16.0981L40.014 16.5164C37.9383 16.2939 35.7525 16.5719 33.7848 16.6025C33.5656 16.3792 33.1236 16.0436 33.535 15.7632L36.691 13.3344ZM73.3888 39.328C73.4164 40.2723 73.5045 41.0834 73.1391 42.0503C69.3474 43.1378 66.8568 39.0902 63.1779 39.7005L63.5938 41.7985C66.9974 41.9114 69.1235 45.2023 72.6395 45.0608C72.14 46.0666 72.8624 48.7171 70.6494 47.6577C68.3519 47.1009 66.6907 45.0608 64.1734 45.0608C63.8697 45.6229 64.0622 46.4014 64.0088 47.0668C66.6645 47.4867 68.5748 49.75 71.2296 50.1678C70.9798 51.0878 70.7325 52.1179 69.9843 52.6787C67.8245 52.1487 66.1372 50.1929 63.8376 50.2488L63.4284 52.1753C65.6133 52.232 67.0257 54.1813 68.9895 54.7667C69.0434 55.5791 68.3233 56.3055 67.9078 57.0305C66.1645 56.5028 64.8351 54.9925 62.8428 55.1041C62.8152 54.3471 63.2607 53.4881 63.0926 52.6787C60.8552 53.3499 59.3549 51.2538 57.6967 49.9963C57.6492 45.882 53.3531 43.1825 53.1262 39.3282C53.0824 38.5595 53.1986 37.7394 53.5461 36.8575C54.9581 33.5661 54.5145 29.2925 52.9665 26.2236C52.4956 25.4157 51.6625 24.7784 50.8856 24.3034C52.0219 26.7322 53.4073 29.6018 52.7157 32.5869C52.6356 34.8919 51.2864 37.1061 51.2712 39.3282C51.266 40.1206 51.4339 40.9129 51.8859 41.713C53.6854 44.9813 56.9238 48.0756 55.7061 52.1748C55.3713 53.4339 54.3747 54.4073 54.1255 55.6887C56.2312 57.4472 58.2223 59.4288 61.0164 59.5402C62.0119 58.8991 61.459 56.0561 63.507 57.3676L66.4974 58.8758C66.2797 59.6826 65.6093 60.406 65.0023 60.9618C63.8677 60.4052 62.761 59.7376 61.3463 59.792C60.9294 60.2384 60.5704 60.7393 60.602 61.3796C61.5975 61.5449 62.511 61.9683 63.3423 62.5554C62.956 63.3939 62.2035 63.9191 61.5117 64.5614L59.1922 63.7252C58.8049 64.284 58.0004 64.8709 58.2828 65.4844C58.8064 65.7101 59.3868 66.0156 59.7719 66.4072C58.7482 67.523 57.4504 68.2411 56.2016 68.9983C55.126 65.4536 51.5816 62.9685 51.8861 58.8692L51.7215 58.7032C50.8886 59.6478 51.1667 61.1576 51.2204 62.3834C52.2175 64.9507 54.5956 66.9339 54.9563 69.7495C54.5399 70.4743 53.6013 70.6188 52.8807 70.9253C52.9648 65.8491 45.327 61.9989 50.2249 56.864C51.8583 54.3496 54.5951 51.9501 53.6255 48.4884C52.6299 45.1458 49.1085 43.0749 49.1396 39.3282L49.1453 39.0358C49.947 35.1287 52.3837 30.9709 50.3906 26.8142C49.8348 25.1423 48.5938 23.2424 46.9059 22.5437C49.4226 25.4478 50.4202 30.1867 48.9806 34.0948C48.2547 35.6496 47.2557 37.5013 47.1557 39.3288H47.1495C47.096 40.2831 47.289 41.2324 47.9002 42.1321C49.8107 45.2584 53.1299 48.6921 51.2207 52.766C49.0624 56.0291 45.2989 59.3483 47.401 63.6465C48.9226 66.213 51.2772 68.7743 50.6416 71.9298L48.1515 72.7662C49.8117 66.8807 41.6745 63.4225 45.0813 57.5347C47.184 54.3822 50.9456 51.4239 48.8162 47.2396C47.5433 44.647 44.9134 43.1125 44.9959 39.8728L45.0867 39.3285C45.9437 34.7336 49.4085 30.3838 46.9855 25.4737C46.3489 24.0235 45.077 22.5454 43.6651 21.7077L43.58 21.7935C46.4039 24.5557 47.2629 29.1006 45.7402 32.754C45.03 34.8974 43.4708 37.0326 43.1541 39.3293C43.0031 40.4125 43.1302 41.5349 43.7506 42.7172C45.5492 45.5888 48.7035 48.6349 46.7353 52.3474C44.6626 55.4136 41.2023 58.3975 42.5844 62.3851C44.1071 65.8739 47.2855 69.1977 45.5696 73.5234L42.9994 74.1086C45.0464 69.8929 41.9772 65.7094 40.1789 62.0533C37.9916 56.8073 44.8783 54.2954 44.989 49.4997C44.9629 46.4039 41.6986 44.6462 41.0093 41.8008C39.5963 40.5989 38.1321 42.2783 36.4433 41.9665C35.1967 42.2191 33.2818 40.2362 32.5375 42.3859C31.6514 45.5371 27.6133 47.8536 29.3877 51.5914C31.0765 54.9129 35.1403 57.3416 33.7828 61.6402C32.5673 65.655 28.5521 69.4778 31.0424 74.1086C30.0193 73.7745 28.1093 74.4143 28.1369 72.7665C26.5602 67.1588 33.2838 63.8915 31.2071 58.2866C30.2407 54.8535 25.8373 52.9571 26.8068 48.8277C27.5235 45.4287 31.3064 43.0526 30.7758 39.3293C30.7286 39.002 30.6523 38.6796 30.5479 38.3661C29.1359 34.3484 26.2553 30.3294 27.9722 25.6402C28.4436 24.3011 29.3852 23.1574 30.2126 21.9603C27.4727 23.4383 26.0906 26.5642 26.1473 29.7442C26.0279 33.2024 28.5615 36.1648 28.922 39.3293C29.0638 40.6064 28.8563 41.9144 27.9722 43.3016C26.1749 45.7603 23.8244 48.353 24.902 51.5907C25.9267 54.8565 29.9665 56.8352 29.7178 60.6309C29.6902 65.1215 24.5152 67.917 25.9819 72.939L23.4062 72.0966C22.3835 67.6339 27.0871 65.351 27.1411 61.2219C27.8068 56.474 21.8004 54.7123 22.1609 50.0836C22.135 46.5669 25.2052 44.3397 26.5612 41.3816C26.7936 40.6618 26.8712 39.9819 26.8401 39.3295C26.6739 36.0589 23.751 33.5021 24.2361 29.8247C24.3993 27.1185 25.3125 24.7461 27.0565 22.711C24.6503 23.6854 23.6562 26.4782 22.9915 28.8222C21.838 32.5812 24.5915 35.9621 24.8674 39.3295C24.9898 40.8168 24.6296 42.2953 23.2418 43.807C21.2482 46.1754 19.2265 49.1643 20.6658 52.3479C22.19 55.8605 26.9784 58.5946 24.9015 62.9755C23.7684 65.7385 21.0552 67.8295 21.1666 71.0931C20.4477 70.7861 19.7019 70.4801 19.0909 69.9233C19.0909 65.7671 24.9552 63.1709 22.1611 58.7905C21.9136 59.6545 21.8604 60.8293 21.6666 61.8058C20.6969 64.346 18.6223 66.3791 17.8459 69.0053C16.5476 68.5002 15.1901 67.4388 14.1102 66.3226L15.606 65.3999C15.4399 64.8406 14.9978 64.3668 14.611 63.8925C13.6398 63.7551 13.002 64.3977 12.201 64.6495C11.5092 64.0342 10.8415 63.4762 10.29 62.7227C10.7865 61.2971 14.6662 62.4759 12.7008 60.1316C11.3739 59.2954 10.042 60.4902 8.88004 61.0481L7.30488 59.0421C8.66088 58.2059 10.0134 57.0311 11.7 57.3681C12.1157 58.1228 12.1445 59.2324 12.9453 59.6264C15.7961 59.5708 17.816 57.3965 20.0014 55.694C18.4782 53.4091 17.2384 50.2544 18.5914 47.4907C19.6753 44.7217 22.5002 42.3892 22.6281 39.3278C22.6572 38.6313 22.5495 37.8981 22.2472 37.1091C20.7537 33.2303 20.2265 27.9878 23.0773 24.5547C21.5273 24.9745 20.6134 26.9226 20.0867 28.4014C18.373 32.1889 20.5405 35.698 20.6154 39.3275C20.6256 39.9806 20.5731 40.6347 20.4161 41.2939C18.9489 44.279 16.5717 46.8983 16.1857 50.3334C14.4971 51.4194 13.1107 53.3185 10.7047 52.6777C10.6201 53.3188 10.8139 54.2959 11.0346 55.0223C9.12656 54.9413 7.82554 56.3594 6.21929 57.0288C5.3633 56.7519 5.14066 55.6365 4.80931 54.8563C6.6897 54.2159 8.0462 52.3153 10.2052 52.3451C10.4554 51.6441 10.0649 51.0018 9.95469 50.3329C7.26906 49.1312 3.01201 56.2741 2.65404 50.0811C5.33768 49.9138 7.05239 47.4019 9.7104 47.1516L9.78976 45.1456C6.77353 44.8386 4.83319 47.9647 1.8182 47.6567L1.15327 44.9795C4.6409 45.1993 6.7188 42.0481 10.0403 41.8785C10.4816 41.2934 10.5348 40.4286 10.6199 39.6202C6.99443 39.1437 4.50682 43.1948 0.658731 41.9645C0.658731 41.9645 0.526136 40.2786 0.454244 39.3278H0.459475C0.444909 39.1174 0.427905 38.9072 0.408474 38.6972C3.83964 40.0393 6.85438 37.5545 9.78976 36.2721C10.5363 36.0469 11.7005 36.4374 12.0351 35.6009C12.0065 34.9591 13.1672 34.2087 12.2007 33.761C7.90937 33.1736 5.05857 38.3925 0.65823 36.0195L0.328125 35.3484C1.24282 22.7383 8.2962 10.5473 20.0009 4.54818C24.7411 1.81683 30.6302 0.424829 36.5694 0.375169C43.7367 0.314974 50.9796 2.21087 56.3673 6.05606C61.599 9.29153 66.6033 14.624 69.3193 20.0373C71.9171 24.7804 73.1124 30.1024 73.4697 35.768C68.9303 39.2262 65.8849 32.5102 61.2624 34.0133C61.5112 34.7399 61.6493 35.4921 62.1779 36.1058C66.2747 36.0765 69.0957 40.4017 73.3843 38.697L73.3888 39.328ZM21.2455 23.798C18.3668 21.9003 14.7175 23.6874 12.0348 24.721C11.7858 22.1807 10.7627 19.8665 8.62929 18.1926C8.42232 18.0885 8.13624 17.8703 7.87852 17.854C7.72429 17.8442 7.57752 17.9072 7.46359 18.1058C8.43052 24.1037 4.56354 28.2888 1.82318 32.8385C2.73564 33.5902 4.20158 33.4781 5.30832 33.2569C8.21336 32.0858 10.9806 30.047 14.4396 30.7457C15.4628 28.988 17.1812 27.2855 18.5904 25.8908C19.4516 25.1393 20.6343 24.6625 21.2455 23.798ZM30.0469 27.5647C29.9914 27.9258 30.0745 28.5699 30.6267 28.3209C31.486 27.1212 33.0071 28.0706 33.9475 28.1548V27.8172C33.4315 27.0004 32.3703 26.5903 31.2922 26.6309C31.0434 26.6399 30.7907 26.6763 30.5474 26.7335C30.1869 26.8142 29.9357 27.1468 30.0469 27.5647ZM43.5788 23.9705C42.8058 22.2402 41.0347 21.5399 39.4279 21.1213C38.6398 21.0235 37.8222 20.9575 37.0112 20.9495C36.8592 20.948 36.7075 20.946 36.556 20.9495C34.2878 20.9957 32.1203 21.5828 30.7962 23.4654C30.6061 23.9969 29.7705 24.7433 30.5464 25.2196C32.29 25.1075 34.2796 24.887 35.4418 26.3954C35.4418 27.7362 36.3005 29.5195 34.8619 30.1613C33.6701 29.0487 32.2586 30.6351 30.9618 29.7422C30.3521 29.3788 29.9663 29.8027 29.7165 30.3329C29.3561 33.7916 31.1526 37.6092 34.3619 39.5337C35.6627 40.0067 37.4112 40.4564 38.7687 39.7855C42.0337 38.2525 43.3862 34.7391 43.9947 31.5022C43.9131 30.8862 43.9417 29.6858 43.0847 29.6565C42.1168 30.274 40.7051 29.909 39.6794 29.6565C39.0727 29.8538 39.0448 30.7487 38.3545 30.9183L37.9339 30.5799C37.5734 29.0475 37.3513 26.8707 38.7642 25.8102C40.3429 25.1684 42.1969 24.8883 43.8293 25.3919C44.134 24.8617 43.6638 24.4446 43.5788 23.9705ZM41.9128 26.7214C41.8031 26.7245 41.6966 26.73 41.5882 26.7335C41.0085 27.1235 39.3187 26.8431 39.9289 28.1548C40.9809 27.3159 42.4476 27.9038 43.4991 28.3209C43.8877 28.1265 43.8039 27.7357 43.829 27.3986C43.4912 26.7653 42.6847 26.7061 41.9128 26.7214ZM53.961 14.9245C51.9127 14.8149 50.1975 15.9875 48.3154 16.5177C48.1517 14.9029 49.3682 13.1977 49.6458 11.5767C46.6029 11.7741 44.1924 13.621 41.6747 15.0963C41.0904 13.6738 40.5086 12.2502 39.9294 10.8255L43.2504 7.6442L43.3355 7.22484L38.8495 6.97303C38.0771 5.60811 37.7724 3.96403 36.8595 2.70847C36.1122 4.13157 35.6102 5.63745 34.8637 7.0588L30.3835 7.31138V7.6442L33.7838 10.7397C33.3681 12.3309 32.9818 14.0597 31.9586 15.2621C29.9665 14.059 28.0023 12.7497 25.8182 11.914C25.2926 11.7432 24.5433 11.4651 24.0729 11.8282C24.7637 13.3635 25.7311 15.0146 25.5684 16.69C24.6545 16.5204 23.9363 15.9298 23.0778 15.6815C22.0512 15.3988 20.8333 14.8473 19.8372 15.1828C21.498 17.5249 22.8535 19.9766 23.3224 22.7955C28.8317 20.1143 35.2567 18.6398 41.926 19.7857C45.0524 20.2871 47.9268 21.5713 50.7224 22.6287C50.8316 19.6731 52.6852 17.2982 53.961 14.9245ZM63.4222 30.9978C66.2426 31.7502 69.0718 34.8487 72.0584 32.8385C69.4571 28.4867 65.5857 24.4677 66.6625 18.777C66.7752 18.3885 66.526 17.9952 66.168 17.94C64.4807 18.6353 63.1737 20.3114 62.506 21.9588C62.2314 22.9334 62.0692 23.969 61.6823 24.8878C59.6607 23.8268 57.5039 22.7995 55.0412 23.0476C54.1526 23.1592 52.8799 23.2179 52.7157 24.1373C55.5103 25.6432 57.8086 28.1561 59.5216 30.8325C60.7147 30.6366 62.1771 30.8039 63.4222 30.9978ZM33.8679 34.931L33.9475 35.4354C35.0288 36.1615 35.3614 37.3925 36.8587 37.2809C38.1861 37.3601 39.1821 36.1061 39.8433 35.1023C38.0473 34.852 35.8607 35.239 33.8679 34.931ZM35.3627 32.6725C35.4166 32.8957 35.2256 33.2305 35.5273 33.3436C36.4132 33.1498 38.0174 33.8187 38.512 32.7582C38.1665 32.3682 37.603 32.1911 37.0112 32.1911C36.4199 32.1911 35.8064 32.3647 35.3627 32.6725Z" fill="#106E33"/>
<path opacity="0.99" d="M33.8699 31.7041H39.9379V34.2175H33.8699V31.7041Z" fill="white"/>
<path d="M34.9905 33.0481C35.7746 33.2352 35.9686 33.5154 36.588 33.5939C37.2472 33.5821 37.1522 33.4471 38.3008 33.0474C38.3766 33.0205 38.4801 32.8525 38.3517 32.7238C37.638 32.01 37.1448 32.5202 36.698 32.5337C36.1042 32.54 35.548 32.0215 34.9683 32.6957C34.8696 32.8324 34.8181 32.9671 34.9905 33.0481Z" fill="#106E33"/>
<path d="M63.6571 74.2872V70.7074H62.3889V69.9785H65.785V70.7074H64.5198V74.2872H63.6571ZM66.3333 74.2872V69.9783H67.6246L68.4 72.9175L69.1667 69.9783H70.461V74.2872H69.6592V70.8955L68.8109 74.2872H67.9801L67.1348 70.8955V74.2872H66.3333Z" fill="#106E33"/>
</g>
<defs>
<clipPath id="clip0_54_21">
<rect width="74" height="75" fill="white" transform="translate(0 0.000244141)"/>
</clipPath>
</defs>
</svg>
