<svg width="113" height="42" viewBox="0 0 113 42" fill="none" xmlns="http://www.w3.org/2000/svg">
<g clip-path="url(#clip0_54_123)">
<path fill-rule="evenodd" clip-rule="evenodd" d="M83.8133 2.75126C83.8133 1.96881 83.1608 1.27793 82.3237 1.27793H80.1347C79.3433 1.27793 78.692 1.96823 78.692 2.75126V25.3513C78.692 26.1801 79.3433 26.8241 80.1347 26.8241H82.3237C83.1608 26.8241 83.8133 26.1338 83.8133 25.3513V2.75126ZM86.6055 3.3494V4.45411C86.6055 4.86793 86.9789 5.23656 87.3969 5.23656H102.482C102.647 5.23725 102.811 5.20556 102.964 5.14333C103.117 5.08109 103.256 4.98954 103.373 4.87396C103.49 4.75838 103.582 4.62105 103.645 4.4699C103.708 4.31876 103.74 4.15679 103.739 3.99333V2.19833C103.739 1.50803 103.181 0.909314 102.482 0.955102C102.482 0.955102 87.9099 2.38206 87.4438 2.42843C86.8852 2.47537 86.6055 2.93499 86.6055 3.3494ZM74.4083 26.8241C70.6377 26.8241 68.2634 24.0165 68.2634 20.8867V11.819H67.193C66.922 11.8167 66.6628 11.7093 66.4711 11.5199C66.2795 11.3306 66.1707 11.0743 66.1683 10.8064V9.28733C66.1683 8.73498 66.6343 8.27478 67.193 8.27478H68.2634V2.70547C68.2634 1.92302 68.9148 1.3243 69.7062 1.3243H71.8483C72.6397 1.3243 73.291 1.92302 73.291 2.75126V8.27478H76.5968C77.2023 8.27478 77.6672 8.73498 77.6672 9.28733V10.8064C77.6672 11.3588 77.2023 11.819 76.5968 11.819H73.291V20.1958C73.291 21.8529 74.3157 22.9582 76.085 22.9582H76.4115C77.0159 22.9582 77.5277 23.4642 77.5277 24.0629V25.7188C77.5277 26.3175 77.0159 26.8235 76.4115 26.8235L74.4083 26.8241ZM48.709 17.2504C48.709 12.4635 45.823 7.63027 39.3047 7.63027C33.2061 7.63027 29.8071 12.3256 29.8071 17.2504C29.8071 22.5438 33.4852 27.1469 39.3047 27.1469C43.3556 27.1469 47.2663 25.0754 48.0108 21.624C48.0461 21.4979 48.0509 21.3654 48.025 21.2372C47.9991 21.1089 47.9431 20.9884 47.8616 20.8854C47.7801 20.7824 47.6753 20.6997 47.5557 20.644C47.436 20.5883 47.3048 20.561 47.1725 20.5645H44.2859C43.7736 20.5645 43.355 20.8404 43.0759 21.2096C42.2845 22.3595 41.0739 23.004 39.3047 23.004C36.7909 23.004 35.068 21.071 34.9285 18.908H47.0799C48.2436 18.9074 48.709 18.3087 48.709 17.2504ZM34.9748 15.1789C35.1612 13.0616 37.0237 11.4967 39.3047 11.4967C41.5394 11.4967 43.4482 13.0616 43.6346 15.1789H34.9748ZM104.251 17.2504C104.251 12.4635 101.365 7.63027 94.8005 7.63027C88.7482 7.63027 85.3486 12.3256 85.3486 17.2504C85.3486 22.5438 88.9803 27.1469 94.8462 27.1469C98.8502 27.1469 102.807 25.0754 103.553 21.624C103.646 21.1632 103.321 20.5645 102.668 20.5645H99.828C99.3162 20.5645 98.8502 20.8404 98.618 21.2096C97.7797 22.3595 96.6154 23.004 94.8005 23.004C92.333 23.004 90.5626 21.071 90.4242 18.908H102.622C103.739 18.9074 104.251 18.3087 104.251 17.2504ZM90.47 15.1789C90.6564 13.0616 92.5652 11.4967 94.8005 11.4967C97.0346 11.4967 98.9897 13.0616 99.1767 15.1789H90.47Z" fill="#CF402F"/>
<path fill-rule="evenodd" clip-rule="evenodd" d="M64.1662 1.55433H24.7326C24.5182 1.55302 24.3057 1.59381 24.1074 1.67432C23.9091 1.75483 23.7289 1.87346 23.5773 2.02335C23.4257 2.17323 23.3057 2.35137 23.2243 2.54745C23.1428 2.74353 23.1016 2.95364 23.1029 3.1656L23.2424 18.4929C23.2424 18.4929 14.7227 3.30354 14.2572 2.52109C13.885 1.78443 12.9535 1.13992 11.7429 1.13992H8.48401C8.26962 1.13861 8.0571 1.1794 7.85878 1.25991C7.66045 1.34042 7.48026 1.45906 7.32867 1.60894C7.17707 1.75882 7.05707 1.93696 6.97564 2.13304C6.89421 2.32912 6.85296 2.53923 6.85428 2.75119V25.2133C6.85428 26.0885 7.59938 26.824 8.48401 26.824H10.5792C11.4638 26.824 12.2083 26.0879 12.2083 25.2133L12.0688 9.4252C12.0688 9.4252 20.6355 24.7989 21.0077 25.3976C21.5201 26.2264 22.3578 26.824 23.5684 26.824H26.5482C27.4328 26.824 28.1779 26.0879 28.1779 25.2133V5.37443H64.1662C64.8175 5.37443 65.2824 4.86786 65.2824 4.26973V2.65904C65.2824 2.06032 64.8175 1.55433 64.1662 1.55433Z" fill="#CF402F"/>
<path fill-rule="evenodd" clip-rule="evenodd" d="M57.7874 11.3125C59.5103 11.3125 60.8135 11.9107 61.2796 12.9696C61.4648 13.5219 61.9309 13.6141 62.4896 13.6141H64.8644C65.2366 13.6141 65.7027 13.246 65.7027 12.7859C65.7027 10.0699 62.4427 7.63037 57.7874 7.63037C52.992 7.63037 49.8732 9.88615 49.8732 13.4761C49.8732 16.2379 52.0611 17.8486 54.7612 18.5853C55.9718 18.9075 58.067 19.4135 59.0918 19.69C60.2079 19.9664 61.1858 20.2887 61.1858 21.2097C61.1858 22.6824 59.6493 23.1884 57.9269 23.1884C56.2972 23.1884 54.668 22.4981 54.202 21.3476C53.9229 20.6567 53.4569 20.5646 52.7593 20.5646H50.3381C49.919 20.5646 49.4535 20.9332 49.4535 21.4855V21.762C49.4535 24.3847 52.992 27.147 57.9269 27.147C61.4191 27.147 66.2602 25.7195 66.2602 21.1169C66.2602 18.4015 64.4452 16.5602 61.5117 15.8241C60.3475 15.5476 57.5546 14.8573 56.996 14.6736C55.878 14.3971 54.9008 14.0754 54.9008 13.1545C54.9008 11.7733 56.2045 11.3125 57.7874 11.3125ZM7.04126 32.8079C47.9645 20.058 79.2506 42.7502 103.739 28.7577C87.816 50.7596 38.0014 21.9915 7.04126 41.048V32.8079ZM105.182 24.6153C105.182 23.2794 106.252 22.3138 107.51 22.3138C108.767 22.3138 109.885 23.2794 109.885 24.6153C109.885 25.9501 108.767 26.9169 107.51 26.9169C106.252 26.9169 105.182 25.9501 105.182 24.6153ZM107.51 26.5025C108.58 26.5025 109.419 25.7189 109.419 24.6153C109.419 23.5106 108.58 22.727 107.51 22.727C106.486 22.727 105.648 23.5106 105.648 24.6153C105.648 25.7195 106.486 26.5025 107.51 26.5025ZM107.044 25.9501H106.626V23.28H107.649C108.301 23.28 108.58 23.5106 108.58 24.0636C108.58 24.5232 108.301 24.7075 107.882 24.7527L108.675 25.9501H108.209L107.511 24.7991H107.044V25.9501H107.044ZM107.51 24.431C107.882 24.431 108.161 24.431 108.161 24.0166C108.161 23.6938 107.882 23.6486 107.603 23.6486H107.044V24.431H107.51Z" fill="#CF402F"/>
</g>
<defs>
<clipPath id="clip0_54_123">
<rect width="113" height="42" fill="white" transform="translate(0 0.000244141)"/>
</clipPath>
</defs>
</svg>
